<svg viewBox="0 0 614 570" fill="none" xmlns="http://www.w3.org/2000/svg"><mask id="mask0" maskUnits="userSpaceOnUse" x="0" y="0"><path fill="#C4C4C4" d="M0.787 0H614V569.85H0.787z"/></mask><g mask="url(#mask0)"><path d="M1084.09 -180.272C1095.88 -177.308 1107.55 -174.11 1118.99 -170.441C1145.57 -162.034 1171.47 -151.633 1196.57 -139.585C1227.78 -124.567 1257.62 -107.312 1285.85 -87.35C1314.37 -67.0987 1340.24 -43.7773 1365.02 -19.0987C1379.92 -4.30372 1394.01 10.9683 1407.4 27.0666C1414.16 35.2905 1420.92 43.5144 1426.52 52.9206C1429.86 58.6114 1434.01 63.8252 1435.9 70.4095C1436.45 72.5661 1436.71 74.4339 1436.5 76.6578C1435.75 82.3953 1431.68 84.7802 1426.45 82.0925C1422.39 79.9759 1419.72 76.2067 1416.75 72.733C1411.78 67.4117 1408.26 60.6124 1401.84 56.769C1399.84 55.5058 1397.23 52.4957 1395.38 54.5045C1393.25 56.8088 1396.02 59.1739 1398.03 61.0216C1412.87 75.642 1425.74 91.9217 1437.86 108.853C1443.44 116.506 1448.1 124.871 1452.52 133.121C1454.25 136.434 1456.62 139.329 1457.48 142.944C1455.8 144.308 1454.97 143.031 1454.14 141.755C1442.79 125.925 1430.87 110.687 1417.2 96.6376C1410.58 89.9321 1404.08 83.5761 1397.57 76.6355C1388.93 67.4978 1379.08 59.9523 1367.84 54.0595C1365.96 53.1457 1362.51 52.776 1364.57 49.128C1365.21 48.7115 1365.67 48.3554 1366.37 48.1136C1371.09 46.4812 1371.31 45.4264 1367.76 41.9595C1359.25 33.7557 1348.85 28.555 1337.71 25.7594C1314.14 19.8324 1290.13 16.0149 1265.72 13.8972C1234.65 11.1544 1203.61 10.7495 1172.27 10.6403C1157.01 10.6395 1141.7 11.0484 1126.7 13.4999C1108.56 16.455 1090.84 21.2175 1074.7 30.5218C1070.63 32.9066 1066.69 35.6409 1063.93 39.5308C1063.12 40.5923 1062.02 41.9493 1062.74 43.461C1063.46 44.9727 1065.15 44.778 1066.5 44.7042C1069.94 44.4894 1073.57 44.2141 1077.06 43.005C1084.63 40.58 1092.51 39.613 1100.33 37.8868C1114.03 35.0993 1127.88 34.4147 1141.83 32.9106C1146.91 32.3263 1152.06 32.5013 1157.15 32.5016C1158.67 32.9518 1160.18 32.233 1161.59 32.3339C1164.05 33.241 1166.38 32.0452 1168.71 32.0185C1199.99 31.953 1230.83 35.1662 1261.09 43.472C1274.29 47.1209 1287.03 52.2948 1299.66 57.1194C1301.71 57.9728 1304.93 58.2283 1304.45 61.9167C1302.54 63.7508 1300.48 62.8974 1298.37 62.4538C1288.06 60.3504 1277.69 58.6568 1267.33 56.9631C1243.26 52.971 1219.18 53.4803 1194.92 54.05C1169.09 54.5794 1143.56 55.9821 1117.99 59.5482C1102.53 61.7712 1087.24 64.5183 1072.21 69.1331C1056.02 74.3458 1040.49 80.8955 1026.75 90.9322C1016.49 98.5908 1007.3 107.64 1000.82 118.88C999.785 120.412 999.221 122.172 997.656 123.301C996.258 123.784 995.391 124.671 994.531 126.142C983.881 145.672 980.03 166.762 979.169 188.577C979.028 191.56 978.477 194.489 978.92 197.465C979.048 198.399 979.122 199.743 980.291 199.73C981.52 199.891 981.796 198.426 981.903 197.607C982.622 194.032 982.522 190.351 982.771 186.548C982.811 184.969 982.495 182.927 985.304 183.128C987.252 184.801 987.628 187.019 987.655 189.357C987.829 194.382 989.925 198.742 991.497 203.284C991.92 204.507 992.464 206.079 993.922 205.77C995.79 205.515 995.535 203.647 995.696 202.418C995.952 199.2 995.683 196.163 995.414 193.126C994.354 182.148 996.571 171.6 998.379 160.998C998.594 159.359 998.923 157.484 1001.26 157.458C1004.39 159.702 1003.31 162.812 1002.93 165.681C1001.71 176.276 1003.75 186.133 1009.93 194.948C1013.74 200.282 1018.8 203.615 1025.42 204.65C1031.8 205.571 1038.17 205.323 1044.4 202.971C1051.79 200.022 1056.05 194.245 1056.61 186.814C1057.1 179.209 1059.97 174.499 1067.2 172.195C1068.07 171.893 1069.18 171.705 1070.06 171.987C1079.2 174.104 1088.43 173.647 1097.66 172.607C1099.7 172.291 1101.92 172.499 1103.97 172.768C1114.11 174.348 1118.97 185.575 1113.28 193.999C1111.44 196.593 1109.3 198.897 1106.51 200.449C1099.36 204.096 1092.1 207.979 1083.93 209.242C1078.39 210.182 1073.21 212.171 1068.03 214.159C1062.85 216.148 1059.68 219.984 1060.18 223.135C1060.62 226.111 1065.46 229.914 1069.91 230.331C1094.44 233.382 1115.75 226.591 1133.68 209.433C1136.92 206.356 1137.86 201.727 1141.57 198.878C1146.18 198.65 1148.54 199.793 1150.51 203.804C1153.51 210.2 1153.35 216.515 1150.67 222.918C1146.75 232.492 1139.34 238.773 1131.04 244.188C1111.43 257.039 1089.63 263.017 1066.26 264.454C1038.11 266.179 1011.66 259.291 986.449 247.479C973.637 241.545 962.371 232.73 954.168 220.898C946.261 209.355 943.54 196.409 944.495 182.777C945.127 171.604 947.634 160.76 952.546 150.649C953.574 148.533 954.011 145.839 957.048 145.57C959.701 147.586 958.035 150.119 957.417 152.289C954.514 164.248 952.43 176.314 954.324 188.569C955.701 196.503 956.03 204.801 960.786 211.761C961.559 212.863 962.042 214.261 963.863 215C965.234 212.178 964.327 209.558 963.944 206.756C962.729 197.592 961.103 188.374 961.641 179.19C963.174 154.795 968.047 131.005 980.779 109.58C982.385 106.873 983.46 103.762 986.544 102.499C988.063 102.365 989.165 101.592 990.206 100.645C1001.42 89.5266 1012.93 78.697 1025.68 69.1977C1028.81 66.9404 1031.94 64.0987 1034.42 61.0889C1039.14 54.9551 1040.01 48.9824 1036.85 43.8157C1032.86 37.3724 1024.51 33.6095 1017.87 35.3224C1010.29 37.1628 1003.38 40.9249 996.283 44.1628C985.002 49.4362 974.084 55.7578 961.722 58.4714C946.208 61.6887 930.527 60.4651 915.23 56.9572C899.112 53.3417 882.88 49.9614 866.339 50.209C849.274 50.6381 832.269 51.2418 815.231 54.0089C798.018 56.8364 780.872 60.4232 763.787 64.1847C760.521 64.9235 756.961 65.3735 754.716 68.4975C753.097 70.0359 750.88 70.412 748.898 70.9024C728.897 75.2817 709.984 82.8054 691.191 90.6785C678.218 96.1467 665.721 102.428 652.928 108.42C642.461 113.217 632.47 118.826 622.063 123.797C608.807 130.145 595.846 136.783 582.227 142.083C568.434 147.443 554.882 153.503 540.787 157.99C526.691 162.477 512.414 166.44 497.573 167.078C486.413 167.615 475.63 165.283 466.547 158.255C460.057 153.068 457.115 146.262 457.78 138.011C458.042 135.378 458.244 132.569 458.506 129.936C459.884 117.527 454.355 114.55 443.088 115.906C440.051 116.175 436.967 117.438 433.857 116.363C431.143 114.172 433.293 113.037 435.033 111.848C443.33 106.433 450.976 100.266 457.501 93.1179C466.161 83.6655 474.231 73.6351 478.417 61.4278C478.814 60.3125 479.27 59.3719 480.789 59.2376C486.634 64.2567 493.661 65.3455 500.83 63.4513C511.674 60.872 521.913 56.5458 530.359 48.7326C541.465 38.4337 550.509 26.6969 559.492 14.7855C571.298 -0.841195 582.982 -16.8173 593.256 -33.4787C596.642 -38.9541 599.793 -44.5437 602.064 -50.4156C604.678 -56.9929 602.838 -59.4856 595.709 -59.1702C589.575 -58.8077 584.106 -56.5238 578.819 -53.7157C568.532 -48.3952 558.367 -42.7253 548.86 -35.7184C528.34 -20.4012 509.239 -3.81427 491.857 14.9161C489.895 17.1599 487.698 19.2896 485.675 21.3588C484.52 22.5412 483.25 23.9587 481.315 23.4547C479.259 22.6014 478.594 20.6798 477.929 18.7583C476.471 13.9813 474.201 9.68139 470.942 5.91881C469.579 4.2391 468.39 2.49892 469.357 0.207955C474.773 -6.75214 481.431 -12.3819 487.673 -18.6499C502.065 -33.02 517.344 -46.5234 533.099 -59.2139C547.115 -70.7152 562.017 -81.3498 577.04 -91.6351C591.136 -101.208 605.414 -110.257 620.168 -118.493C637.247 -127.925 654.682 -136.894 672.715 -144.7C693.247 -153.762 713.84 -162.649 735.454 -169.152C754.797 -174.868 774.08 -180.759 793.792 -184.843C809.829 -188.242 825.813 -191.23 841.864 -193.46C855.287 -195.367 868.832 -196.925 882.444 -197.724C898.918 -198.731 915.452 -199.563 931.939 -199.401C956.26 -199.212 980.36 -197.967 1004.48 -194.969C1023.04 -192.785 1041.42 -189.955 1059.77 -186.132C1063.1 -185.527 1066.22 -183.867 1069.55 -183.847C1070.97 -182.577 1070.04 -181.865 1069.06 -181.327C1068.07 -180.79 1066.9 -180.776 1065.67 -180.938C1055.77 -182.403 1046.16 -179.662 1036.59 -177.916C1029.24 -176.546 1021.95 -175.586 1014.58 -175.969C1004.57 -176.614 994.467 -175.856 984.349 -176.266C982.77 -176.307 981.608 -175.709 980.332 -174.876C974.144 -174.103 967.815 -175.434 961.667 -176.241C928.767 -180.307 895.745 -179.637 862.871 -176.28C849.266 -174.896 835.782 -173.164 822.426 -170.497C809.768 -168.073 797.237 -164.714 784.526 -161.879C768.959 -158.252 754.413 -152.24 739.323 -147.8C732.04 -145.67 725.657 -141.505 718.676 -138.503C699.891 -130.045 682.059 -119.961 666.606 -106.398C653.524 -95.0238 641.981 -82.0309 630.733 -68.7489C604.086 -37.227 582.565 -2.19776 561.339 33.1204C552.678 47.6588 544.312 62.4862 535.121 76.6215C533.857 78.6235 532.655 80.8003 530.33 81.996C529.107 82.4192 527.999 82.6073 527.018 83.7293C517.329 95.2981 506.458 105.711 497.891 118.261C494.444 123.562 492.636 129.077 493.295 135.5C494.147 143.616 499.468 148.817 507.651 148.723C511.394 148.797 515.129 148.287 518.683 147.253C531.267 143.484 544.335 141.113 556.912 136.76C558.31 136.277 558.646 134.987 559.573 134.275C563.463 131.95 568.025 132.132 572.278 130.856C593.825 123.594 615.13 115.634 635.709 105.577C653.789 96.7769 671.573 87.6877 689.895 79.5862C710.078 70.6449 730.503 62.4024 751.828 56.1956C766.394 51.9369 781.323 48.7263 796.252 45.5156C809.548 42.6744 822.844 39.8332 836.321 37.516C861.644 33.2512 886.912 29.3962 912.712 31.0302C928.097 31.9649 943.361 32.5502 958.794 32.4906C972.238 32.3368 985.493 31.0745 998.81 29.9869C1014.99 28.6911 1030.97 25.7022 1046.77 22.1893C1057.33 19.9056 1067.64 16.9231 1078.25 14.2296C1102.15 8.11028 1126.43 4.79263 1151.07 1.93861C1162.16 0.642533 1173.14 0.166165 1184.24 -0.545382C1185.76 -0.67967 1187.17 -0.578819 1188.15 -1.70076C1190 -3.12499 1192.22 -2.9166 1194.21 -2.82242C1209.12 -2.70065 1223.87 -1.34945 1238.83 -1.63752C1240.17 -1.71134 1241.29 -1.31486 1242.47 -0.743705C1243.88 0.526166 1245.93 0.794971 1247.69 0.774917C1264.58 0.990842 1281.43 1.61662 1298.34 3.00156C1305.94 3.49915 1312.94 1.6654 1319.98 -1.16272C1329.4 -5.01191 1333.66 -16.4601 1328.65 -25.2885C1323.57 -34.2916 1316.24 -41.3397 1307.71 -46.7957C1290.92 -57.4186 1275.12 -69.1635 1259.37 -81.3182C1241.97 -94.857 1222.74 -105.218 1201.91 -111.703C1184.2 -117.112 1165.99 -119.417 1147.51 -115.172C1145.35 -114.622 1143.37 -114.131 1141.27 -113.406C1123.98 -107.42 1106.45 -101.549 1089.21 -95.3895C1074.08 -89.955 1058.38 -87.2618 1042.56 -85.5024C1015.65 -82.4469 988.624 -83.6577 961.488 -84.6334C938.094 -85.535 914.875 -86.497 891.474 -87.9831C875.914 -88.8574 860.186 -89.0867 844.881 -93.1791C842.066 -93.9653 839.426 -94.812 837.243 -96.5993C833.702 -99.4817 833.084 -102.398 835.61 -106.402C836.585 -108.108 837.976 -109.176 839.541 -110.305C845.568 -114.934 852.549 -117.936 859.529 -120.939C860.577 -121.302 861.686 -121.49 862.801 -121.094C864.568 -119.945 866.611 -120.26 868.599 -120.166C878.892 -119.816 889.346 -120.696 899.484 -118.532C911.322 -115.978 922.824 -112.135 933.983 -107.585C951.485 -100.537 969.208 -94.5428 988.43 -95.5227C998.185 -96.1604 1007.58 -97.8462 1016.65 -101.574C1019.56 -102.777 1022.35 -104.329 1024.19 -106.922C1026.67 -110.516 1026.22 -113.493 1022.57 -116.14C1020.51 -117.578 1018.16 -118.136 1015.93 -118.929C1014.4 -119.379 1012.47 -119.883 1013.61 -122.234C1015.12 -123.537 1017.05 -123.618 1018.8 -123.638C1023.65 -123.752 1028.5 -123.866 1033.18 -123.919C1044.22 -124.221 1054.65 -127.439 1064.96 -131.006C1067.58 -131.913 1070.19 -133.404 1073.12 -132.853C1073.56 -130.461 1073.62 -130.286 1071.06 -129.205C1067.45 -127.761 1063.61 -126.43 1061.1 -125.759C1069.09 -127.545 1078.18 -129.52 1086.84 -133.887C1090.16 -135.62 1093.23 -137.467 1096.07 -140.014C1105.21 -148.653 1105.08 -159.759 1095.92 -168.715C1093.32 -171.141 1090.6 -173.331 1087.31 -174.93C1085.73 -175.555 1084.08 -176.355 1082.9 -177.51C1080.71 -179.298 1081.34 -180.299 1084.09 -180.272Z" fill="#AE1D3E"/><path d="M126.897 45.573C121.812 40.4868 115.638 37.3422 109.403 34.0229C104.23 31.5099 98.7678 29.2924 94.2263 25.7783C90.8067 23.2453 87.3871 20.7122 88.7916 15.7272C89.7391 11.6827 94.2138 9.35151 99.7095 9.40556C107.073 9.2044 114.336 10.4074 121.316 12.4906C129.177 14.856 137.326 16.9257 143.876 22.2875C146.154 22.0861 148.035 22.9999 149.574 24.6191C155.667 30.9214 162.513 36.5721 168.781 42.814C170.259 44.2586 172.913 46.2742 169.137 48.3635C165.919 48.108 163.789 45.9109 161.37 44.0095C156.473 40.0318 151.629 35.6443 145.065 34.1995C143.191 33.8701 141.195 33.1915 139.811 34.8442C138.427 36.4969 139.267 38.358 140.221 39.9839C142.075 43.6456 144.507 46.716 147.288 49.6656C154.033 56.7205 160.838 63.95 166.831 71.6565C171.164 77.3944 174.973 83.3136 177.855 89.9449C178.937 92.5048 180.656 94.6481 182.491 96.5563C183.142 97.3088 183.854 98.2359 185.017 97.6381C186.065 97.2753 186.287 96.2205 186.508 95.1658C186.676 94.5208 186.569 95.3404 186.562 94.7559C184.937 85.538 188.928 76.7235 188.122 67.6132C188.458 66.3232 188.21 65.04 187.961 63.7567C187.834 62.8228 187.881 61.8284 188.989 61.6404C189.863 61.3381 190.514 62.0906 191.166 62.8431C192.113 63.8845 192.536 65.1073 192.724 66.2159C193.463 69.4812 193.792 72.6927 193.537 75.9109C191.836 95.8648 196.43 114.227 206.158 131.595C211.23 140.598 217.001 149.359 223.638 157.234C225.237 159.028 226.836 160.821 227.971 162.971C228.69 164.483 229.469 166.17 227.319 167.305C222.576 166.599 220.655 162.178 217.699 159.289C215.865 157.381 213.97 155.298 211.444 154.216C210.033 153.531 208.448 152.906 206.943 154.209C205.612 155.452 205.982 157.085 206.526 158.657C208.454 163.662 211.309 167.956 214.399 172.363C233.532 199.386 259.807 217.091 289.939 229.549C334.811 247.859 381.774 254.688 429.838 255.658C459.017 256.318 488.229 254.815 517.173 250.275C533.922 247.803 550.302 243.699 566.796 239.36C584.05 234.953 600.94 229.499 618.073 224.743C629.32 221.633 640.627 218.698 651.753 215.238C658.627 213.055 666.044 212.444 672.857 210.086C679.636 209.892 685.924 212.801 692.26 214.716C712.153 221.329 730.453 231.817 749.151 241.191C759.792 246.505 769.749 253.231 779.934 259.487C791.886 266.891 803.609 274.766 815.79 281.7C834.561 292.417 854.42 301.193 873.762 310.734C883.638 315.532 894.374 318.858 904.821 322.48C919.373 327.224 934.087 330.739 949.25 332.728C973.081 336.022 996.77 337.212 1020.7 334.015C1030.04 332.739 1039.38 331.463 1048.83 329.952C1055.37 329.059 1061.19 326.654 1067.25 324.948C1069.34 324.222 1071.33 323.732 1073.24 322.483C1077.33 321.851 1080.92 319.238 1085.13 319.54C1086.85 321.684 1084.45 321.536 1083.76 321.778C1078.58 323.766 1073.27 325.405 1068.03 327.219C1076.59 324.256 1084.68 320.481 1093.05 316.995C1103.12 312.729 1112.89 308.174 1122.53 302.686C1131.82 297.318 1140.17 290.909 1148.75 284.614C1152.05 282.297 1155.24 280.214 1158.55 277.896C1167.24 270.782 1176.04 264.017 1183.96 255.8C1191.12 248.236 1197.17 240.275 1200.62 230.473C1200.91 229.592 1201.36 228.652 1202.05 227.825C1205.03 222.296 1205.25 216.156 1205.71 210.129C1206.86 198.19 1206.54 185.976 1208.45 173.97C1210.15 164.188 1212.91 154.628 1217.42 145.632C1225.22 131.98 1236.28 122.676 1251.18 117.127C1275.63 108.078 1299.45 110.787 1323.23 119.576C1348.59 128.99 1369.98 143.887 1388.5 163.492C1404.24 180.148 1422.59 194.144 1439.48 209.618C1450.29 219.374 1460.64 229.486 1469.36 241.136C1470.37 242.352 1471.67 243.273 1472.5 244.549C1482.79 260.157 1489.54 277.384 1494.19 295.336C1495.47 300.173 1497.28 304.829 1498.03 309.848C1498.23 311.541 1499.01 313.228 1497.74 314.645C1494.76 314.504 1494.43 311.877 1493.94 309.895C1491.4 301.974 1487.34 294.771 1482.82 287.925C1481.93 286.474 1481.08 284.028 1478.98 284.753C1477.47 285.472 1478.32 287.918 1478.45 289.436C1478.79 293.232 1480.06 296.901 1481.33 300.569C1481.93 302.316 1483.01 304.291 1481.04 305.951C1478.4 305.104 1478.31 302.591 1477.41 300.555C1476.63 298.869 1476.38 297.001 1475.13 295.086C1474.76 303.626 1474.44 311.755 1480.24 318.353C1483.5 322.115 1484.15 327.369 1487.93 330.951C1490.61 335.304 1490.96 340.269 1492.24 345.107C1495.78 358.161 1498.21 371.404 1501.34 384.404C1502.08 387.085 1503.04 389.88 1504.47 392.319C1507.87 398.184 1508.48 405.017 1511 411.185C1517.32 426.604 1521.54 442.749 1527.27 458.175C1529.86 465.102 1530.76 472.224 1531.13 479.527C1531.22 481.455 1531.06 483.269 1530.67 484.969C1528.31 493.414 1520.45 496.134 1513.38 490.954C1508.6 487.326 1505.09 482.28 1501.82 477.348C1497.42 470.851 1494.18 463.756 1490.95 456.661C1488.73 451.951 1488.14 446.872 1487.21 441.914C1486.91 441.04 1487.3 439.925 1486.94 438.877C1481.32 427.717 1483.35 416.061 1484.21 404.418C1485.67 383.765 1486.95 363.173 1482.22 342.708C1476 315.128 1463.5 290.893 1444.56 270.065C1430.94 255.021 1414.9 242.578 1399.09 230.248C1385.76 219.995 1372.43 209.742 1358.76 200.194C1347.45 192.373 1336.07 184.377 1323.49 178.558C1305.04 169.884 1286.2 168.579 1266.58 175.176C1250.97 180.382 1238.5 189.586 1228.01 202.216C1217.69 214.786 1209.43 228.793 1200.64 242.398C1182.84 270.662 1160.55 294.417 1131.99 311.931C1115.68 321.88 1098.7 330.492 1080.36 336.256C1050.59 345.774 1020.04 352.438 988.512 351.22C966.348 350.48 944.668 346.051 923.384 340.507C896.94 333.619 871 324.796 845.799 314.152C829.292 307.151 813.128 299.444 797.192 291.266C775.257 279.884 754.699 266.264 733.341 254.291C716.102 244.608 697.297 241.141 677.537 246.219C662.441 250.074 647.277 253.171 632.415 257.141C628.801 258 625.125 258.685 621.504 258.961C601.651 260.942 581.992 264.616 562.193 266.187C509.223 270.826 456.248 274.881 403.171 270.169C392.462 269.18 381.988 268.306 371.386 266.499C370.157 266.337 368.867 266.001 367.523 266.075C344.552 266.396 323.08 259.744 301.944 251.801C290.026 247.319 278.732 241.252 267.15 235.48C260.741 232.221 254.338 229.547 248.271 225.583C233.249 215.524 220.653 202.866 208.17 189.972C199.887 181.298 193.458 171.2 187.029 161.101C184.886 157.735 185.074 153.758 183.455 150.211C182.387 148.82 181.729 147.483 181.534 145.79C181.574 144.211 181.85 142.746 181.306 141.174C176.55 129.127 175.932 116.04 173.158 103.503C171.123 94.231 166.414 86.276 160.777 79.0332C153.656 69.7612 145.782 61.1409 137.042 53.4074C135.624 52.1375 133.972 50.7533 132.326 49.9537C129.282 49.6378 127.683 47.8439 126.897 45.573Z" fill="#DD214F"/><path d="M184.046 150.788C188.204 166.759 198.456 178.859 209.111 190.429C221.069 203.504 233.955 215.867 248.856 225.576C261.164 233.444 274.674 239.135 288.017 245.472C308.824 255.289 330.423 262.875 353.421 264.892C390.816 268.381 428.225 273.039 465.916 271.731C489.115 270.939 512.307 269.563 535.493 267.603C555.057 265.918 574.508 264.467 593.945 261.848C605.736 260.31 617.769 259.471 629.197 256.885C638.643 254.79 648.264 252.633 657.764 250.128C673.036 246.212 688.18 241.362 704.17 244.044C714.946 245.791 725.098 249.124 734.456 254.687C749.875 263.631 764.836 273.514 780.544 282.162C793.013 288.801 805.308 295.5 818.005 301.668C843.045 313.541 868.709 323.828 895.227 332.06C919.809 339.788 944.668 346.051 970.312 349.499C992.852 352.456 1015.1 350.623 1037.22 346.688C1047.89 344.753 1058.44 341.885 1068.87 338.667C1075.57 336.545 1082.68 335.06 1089.14 332.239C1114.74 321.423 1139.02 308.518 1159.56 289.284C1170.02 279.402 1179.61 268.653 1188.19 257.272C1196.48 246.187 1203.06 234.128 1210.59 222.525C1219.84 208.565 1229.21 194.369 1243.54 184.91C1262.45 172.3 1283.08 166.92 1306 172.094C1318.13 174.937 1328.72 180.662 1339.2 187.206C1357.69 198.803 1375.14 211.932 1392.66 225.236C1406.93 235.946 1421.08 246.891 1434.14 259.194C1448.45 272.826 1460.37 288.065 1469.11 305.97C1479.65 327.363 1485.28 349.863 1485.84 373.533C1486.11 386.157 1484.61 398.801 1483.88 411.378C1483.43 417.989 1483.91 424.472 1483.99 430.902C1484.06 432.246 1484.6 433.233 1485.2 434.396C1486.33 436.546 1487.64 438.635 1486.97 441.215C1485.48 443.688 1486.73 446.187 1486.76 448.525C1486.91 451.797 1486.66 455.015 1486.81 458.287C1487.39 467.868 1476.8 477.401 1466.75 477.75C1452.02 478.152 1440.21 472.85 1431.71 460.73C1430.94 459.628 1429.82 458.647 1429.05 457.545C1426.83 452.835 1427.36 448.152 1428.89 443.516C1431.18 434.312 1436.53 426.593 1441.88 418.874C1451.36 405.027 1460.14 390.838 1463.52 374.022C1466.56 359.08 1465.4 344.42 1461.9 329.787C1453.42 293.99 1432.59 265.993 1405.54 242.1C1384.4 223.401 1363.02 205.173 1338.43 191.19C1319.72 180.648 1293.56 178.55 1272.84 196.091C1248.23 217.126 1227.52 241.506 1206.64 265.947C1190.2 285.134 1172.46 302.816 1152.11 318.073C1124.4 338.617 1093.87 352.704 1060.77 361.617C1043.23 366.319 1025.86 370.961 1008 373.621C999.832 374.883 991.716 375.736 983.539 376.414C980.677 376.622 977.936 377.18 975.255 377.912C968.207 380.155 961.025 380.881 953.729 381.841C946.957 382.62 940.305 383.748 933.654 384.877C931.437 385.253 929.105 385.864 926.928 384.661C925.215 383.103 926.667 382.209 927.708 381.262C929.213 379.958 930.778 378.83 932.284 377.527C938.411 371.494 938.035 364.191 931.425 358.654C923.336 351.673 913.419 348.454 903.449 345.646C893.54 343.011 883.63 340.377 873.888 337.098C856.871 331.447 841.627 322.443 826.383 313.439C818.966 308.964 811.26 304.785 803.386 301.251C798.804 299.315 794.108 297.615 789.888 301.814C785.669 306.013 787.127 310.79 789.229 315.735C790.432 318.644 793.556 320.888 793.246 324.516C791.392 325.941 789.914 324.496 788.792 323.515C779.36 316.608 769.699 310.171 760.555 302.968C748.227 293.347 734.246 287.427 718.673 285.384C714.4 284.906 710.134 285.014 706.176 286.579C700.647 288.688 699.511 291.624 702.494 296.851C702.971 297.664 703.683 298.591 703.461 299.646C704.489 302.616 705.866 305.464 706.37 308.616C708.062 318.593 701.391 323.053 692.106 323.92C689.069 324.188 685.904 323.523 682.908 322.213C677.883 322.387 673.65 320.331 669.297 317.925C659.293 312.194 648.779 307.813 638.486 302.377C637.015 301.517 635.496 301.651 633.978 301.786C627.938 300.159 622.523 296.948 616.423 295.147C599.177 289.966 581.561 288.238 563.723 287.565C525.065 286.078 486.554 287.279 447.949 285.382C404.669 283.539 361.932 278.182 320.46 265.737C291.597 256.947 264.22 245.101 239.47 227.846C217.844 212.836 200.786 193.506 186.04 171.811C176.588 158.064 168.124 143.78 160.586 128.784C157.295 122.099 154.816 114.937 152.398 107.949C151.659 104.684 151.269 101.298 151.464 97.9051C153.44 96.8302 153.869 98.6375 154.817 99.679C157.242 102.165 159.15 105.417 160.762 108.38C163.1 113.439 165.901 118.142 168.528 122.906C171.275 128.019 173.15 133.434 176.421 138.365C178.383 141.208 180.875 144.453 181.56 148.128C181.634 149.472 182.582 150.513 184.046 150.788Z" fill="#EF436B"/><path d="M226.91 167.251C228.824 166.001 227.467 164.906 226.695 163.804C222.476 157.831 217.444 152.335 213.4 146.302C204.834 133.422 197.552 120.294 194.221 105.015C192.118 94.9846 191.245 85.115 192.24 74.9902C192.603 70.9524 192.086 66.6323 189.527 62.628C188.734 64.8585 191.502 66.639 189.184 68.4193C188.949 68.305 188.539 68.2513 188.478 68.0766C185.986 59.7455 178.636 56.0297 171.925 51.8974C170.628 50.9769 168.693 50.473 169.426 48.0678C171.166 46.8787 170.279 46.0119 169.157 45.0309C162.473 38.1508 154.807 32.3926 148.351 25.0422C147.108 23.7119 144.951 24.2626 144.112 22.4015C144.004 18.1353 140.242 16.3076 138.334 13.0558C135.116 7.71433 132.308 2.42671 131.536 -3.76111C130.817 -10.3587 137.53 -16.3983 144.739 -14.7855C155.051 -12.682 163.879 -7.5217 172.539 -1.71642C182.2 4.72046 191.344 11.9232 202.664 15.2428C205.069 15.9753 206.883 16.1299 208.912 14.6452C214.368 11.1922 219.971 10.4266 226.313 12.9262C241.228 18.7184 255.854 24.8062 271.051 29.7183C294.814 37.3384 318.893 41.9151 343.846 41.1035C346.768 41.0701 349.563 40.1028 352.701 38.4301C348.516 35.3796 343.88 33.8542 339.479 32.4431C324.047 27.4168 308.387 22.8608 293.015 18.0092C273.478 11.8606 254.633 4.88573 236.574 -4.90416C229.513 -8.91552 222.862 -12.8731 218.864 -19.9009C216.298 -24.4898 214.605 -29.381 217.999 -34.2719C220.7 -38.3365 224.771 -40.1368 229.34 -39.3707C234.728 -38.497 239.095 -34.9224 242.064 -30.8643C253.518 -15.8544 270.025 -8.85282 286.593 -1.67651C308.683 7.8919 331.566 15.2298 353.938 23.9181C355.524 24.543 357.109 25.168 358.581 26.028C362.82 28.6686 367.294 31.4234 366.951 37.2148C366.494 43.2413 362.563 47.1445 357.39 49.7175C344.544 56.1195 331.033 55.5141 317.334 53.8001C297.487 51.2795 278.763 44.6541 259.582 38.9691C251.957 36.718 244.446 34.2317 236.659 33.2101C233.965 32.7732 231.331 32.511 229.604 34.8691C227.938 37.4019 228.556 40.3178 230.047 42.9314C234.105 50.1339 240.702 54.5013 247.703 58.338C265.587 68.1884 285.111 73.1679 305.085 76.6223C322.949 79.6332 341.136 80.1851 359.055 77.7002C375.865 75.4034 392.413 70.6544 406.569 61.2559C416.432 54.7126 424.69 45.7909 432.954 37.4536C433.646 36.6273 434.278 35.6262 435.561 35.3777C438.148 36.6342 438 39.0328 437.966 41.1961C437.911 56.8637 432.159 70.1997 422.182 82.064C408.455 98.3557 390.798 108.379 369.977 112.651C355.163 115.626 340.147 116.324 325.164 114.859C321.053 113.152 316.612 113.32 312.278 112.668C288.031 108.736 264.181 103.689 241.903 93.0121C237.496 91.0164 232.873 90.66 228.143 91.1233C222.48 91.7143 219.785 96.3634 221.424 101.664C223.124 107.14 226.389 111.487 230.003 115.713C240.55 128.103 253.12 138.423 265.804 148.508C267.457 149.893 269.049 151.102 270.877 152.426C277.185 157.089 283.493 161.752 291.193 155.175C293.417 155.383 294.196 157.069 295.325 158.635C305.812 175.936 319.765 189.689 336.494 200.722C347.095 207.616 359.182 211.453 371.201 214.531C415.469 226.008 460.624 228.181 506.068 224.972C521.313 223.804 536.369 221.527 551.311 219.485C553.528 219.109 555.739 218.149 558.016 217.947C559.709 217.752 561.806 217.027 562.827 219.412C560.233 222.657 556.33 223.812 552.722 225.257C526.069 235.85 498.187 241.197 469.801 243.392C433.997 246.199 398.443 245.202 363.01 239.469C333.375 234.664 304.754 226.573 278.223 212.087C265.694 205.273 254.83 195.927 244.027 186.756C238.774 182.315 233.056 178.229 228.609 172.727C227.36 170.812 225.532 169.488 226.91 167.251Z" fill="#AE1D3E"/><path d="M634.61 300.784C636.115 299.481 637.647 300.516 638.883 301.262C649.525 306.577 660.449 311.011 670.634 317.267C674.403 319.679 678.85 320.096 682.673 322.098C681.927 323.334 682.922 323.381 683.687 323.899C699.012 334.831 713.181 346.945 729.714 356.285C734.599 359.093 739.523 360.323 745.187 359.732C751.785 359.014 755.003 354.183 752.477 348.015C748.386 337.89 740.707 330.963 731.698 325.279C727.224 322.524 722.749 319.769 717.589 318.425C714.949 317.578 712.766 315.791 713.666 312.741C714.627 309.865 717.435 310.067 720.19 310.679C730.328 312.843 738.464 318.829 746.136 325.172C761.245 337.743 777.51 349.132 792.794 361.643C806.661 372.884 819.775 384.776 832.774 396.904C836.852 400.774 841.508 404.053 844.719 408.81C845.492 409.912 846.09 411.074 846.453 412.122C846.943 414.104 846.674 416.153 844.994 417.517C843.14 418.941 841.433 417.967 839.902 416.932C834.89 413.19 830.859 408.325 826.311 404.227C811.779 391.064 798.229 376.78 782.199 365.505C777.839 362.515 773.364 359.761 768.205 358.417C761.93 356.676 758.987 360.042 760.579 366.337C761.983 371.524 765.248 375.871 769.03 379.452C778.838 388.577 787.606 398.648 797.011 408.303C810.38 422.064 823.4 435.945 834.74 451.19C843.406 462.666 851.495 474.732 859.986 486.269C866.698 495.487 873.926 503.939 884.333 509.14C891.078 511.109 897.327 510.511 903.3 506.292C911.94 500.172 918.928 492.668 924.377 483.544C925.996 482.006 926.594 483.168 926.903 484.626C927.151 485.91 926.641 487.26 926.009 488.261C919.478 499.911 913.417 511.789 903.883 521.543C897.064 528.403 889.162 532.702 879.77 534.388C860.46 537.941 852.996 549.718 850.213 567.112C849.89 569.571 849.743 571.97 849.769 574.308C849.957 585.588 853.235 596.19 859.422 605.59C864.42 613.249 872.402 615.964 881.284 615.628C892.678 615.206 901.621 609.959 908.83 601.4C911.021 598.686 912.801 595.918 914.992 593.204C915.798 592.142 916.94 589.791 918.781 592.284C910.254 608.34 900.135 623.188 886.301 635.213C881.034 639.775 875.645 643.987 869.309 647.158C862.799 650.389 856.101 652.512 849.785 647.264C845.123 643.401 843.598 637.865 842.597 632.147C838.024 600.281 831.179 569.201 818.913 539.41C808.81 514.739 796.267 491.499 776.24 473.196C767.023 464.65 756.717 458.045 746.062 451.561C734.641 444.56 722.366 439.614 710.435 433.963C698.033 428.084 689.507 418.711 687.183 404.649C685.995 397.823 689.925 393.92 696.825 394.075C707.528 394.478 717.222 398.752 726.628 403.321C757.553 418.634 783.344 440.027 803.599 468.031C811.499 478.99 818.123 490.781 825.788 501.625C827.038 503.54 828.475 506.564 831.035 505.482C833.246 504.521 832.332 501.317 831.842 499.335C829.632 490.123 826.723 481.154 822.652 472.782C808.041 442.434 786.651 417.366 760.57 396.268C746.704 385.028 731.003 376.964 714.106 371.663C705.54 368.955 696.43 369.76 687.541 369.511C676.839 369.107 666.929 366.473 657.691 361.259C643.039 352.833 628.615 343.937 612.759 337.688C591.972 329.625 570.406 324.961 548.504 321.587C528.476 318.542 508.247 318.306 488.279 315.436C462.165 311.76 435.788 310.717 409.666 306.456C397.835 304.487 386.118 302.282 374.502 298.674C373.212 298.338 372.036 297.767 369.806 296.974C374.348 295.402 378.103 296.645 381.792 297.129C412.293 301.048 443.064 302.917 473.775 304.612C503.02 306.031 532.145 307.101 561.189 311.328C563.064 311.658 564.817 311.638 566.631 311.792C567.101 312.021 567.518 312.659 568.102 312.652C586.316 315.542 603.69 321.657 620.943 327.423C627.339 329.512 633.164 332.778 639.674 334.633C643.544 335.641 647.413 336.649 651.498 336.017C659.493 334.815 662.967 326.766 657.983 320.276C652.998 313.786 646.454 309.009 639.507 304.762C637.156 303.62 634.932 303.411 634.61 300.784Z" fill="#DD214F"/><path d="M184.046 150.788C183.065 151.91 182.313 152.562 181.178 150.412C175.911 139.716 169.656 129.557 164.329 118.686C160.796 111.302 156.967 103.629 151.169 97.616C149.865 96.111 148.737 94.5455 147.259 93.1009C135.327 82.3641 121.346 86.6162 117.374 102.27C115.029 111.884 116.715 121.277 119.274 130.367C120.92 136.253 122.566 142.138 125.958 147.419C130.049 152.458 131.991 158.633 134.745 164.33C137.681 170.552 140.677 176.948 143.787 183.109C148.691 192.757 153.656 202.58 159.722 211.63C162.577 215.923 165.143 220.512 168.059 224.98C168.831 226.082 169.255 227.305 168.744 228.655C193.829 264.964 227.628 291.41 264.834 314.134C288.382 328.479 312.958 340.708 337.419 353.173C344.299 356.66 351.064 360.382 357.83 364.105C364.83 367.941 371.602 372.248 378.146 377.026C384.689 381.803 390.595 386.997 391.864 395.751C392.468 407.67 386.656 415.745 376.84 421.294C375.389 422.187 374.058 423.43 372.486 423.974C368.294 425.425 364.464 427.924 359.775 426.809C328.083 431.322 299.55 420.658 272.153 407.058C238.05 389.911 204.687 370.942 174.025 347.91C157.928 335.876 143.504 321.894 131.627 305.661C130.854 304.559 129.793 303.753 129.719 302.409C132.339 301.502 133.535 303.827 134.838 305.332C152.93 323.13 172.809 338.745 194.704 351.707C205.534 358.13 216.767 364.023 229.593 366.039C231.232 366.254 232.932 366.644 234.686 366.624C239.771 366.624 242.372 363.964 241.787 358.885C241.27 354.565 239.705 350.607 237.441 346.892C230.999 335.625 222.353 325.902 214.17 315.824C192.235 289.184 171.752 261.65 153.412 232.397C147.339 222.762 142.079 212.65 137.518 202.297C133.857 193.979 130.195 185.661 126.42 177.579C121.677 166.701 116.646 156.119 113.126 144.818C109.183 132.295 105.703 119.415 106.893 105.898C107.761 94.8389 111.98 85.5541 121.555 79.3064C124.746 77.2239 128.072 76.6596 131.646 77.3787C138.969 78.7565 145.318 81.8407 150.524 87.2762C151.707 88.4319 152.829 89.4128 154.125 90.3333C158.741 95.191 161.965 101.117 164.491 107.285C169.597 119.21 175.226 130.955 180.506 142.82C181.164 144.157 181.413 145.44 181.547 146.959C182.32 148.061 182.864 149.633 184.046 150.788Z" fill="#80C347"/><path d="M127.817 177.095C141.891 211.542 161.017 243.066 183.166 273.153C198.483 293.672 214.842 313.244 230.448 333.468C235.433 339.958 240.128 346.744 242.735 354.84C245.764 364.159 241.961 368.996 232.186 367.88C216.673 366.012 203.438 358.856 190.72 350.934C169.054 337.502 149.114 321.713 131.076 303.504C130.72 303.041 130.249 302.812 129.719 302.409C123.934 297.565 120.468 290.94 116.074 285.028C106.991 272.914 98.1975 260.504 91.1438 246.905C81.8799 229.181 74.3024 210.678 69.2847 191.093C67.8137 185.147 65.8186 179.383 65.1068 173.37C66.39 173.121 67.7404 173.632 68.9632 173.209C75.7693 170.266 81.3589 173.417 86.6059 177.274C94.5066 183.147 101.023 190.672 107.882 197.491C112.612 202.114 117.516 206.676 123.113 210.412C123.878 210.929 124.705 211.621 125.645 212.078C128.292 213.51 131.235 215.23 134.077 213.268C136.98 211.481 135.656 208.222 135.273 205.421C134.125 197.016 130.356 189.518 126.762 181.959C125.439 178.701 125.553 178.466 127.817 177.095Z" fill="#27421D"/><path d="M562.76 218.653C557.217 219.593 551.613 220.359 545.896 221.36C533.003 223.67 520.157 224.986 507.076 226.188C488.271 227.806 469.392 228.081 450.439 227.011C414.058 225.323 378.174 221.115 344.388 206.01C329.816 199.512 318.818 188.648 307.935 177.548C301.546 170.957 296.662 163.063 291.663 155.403C290.024 155.188 289.366 153.851 288.593 152.749C285.013 146.36 282.655 139.547 281.869 132.19C280.828 122.966 285.31 116.133 294.044 113.11C297.014 112.082 300.165 111.579 303.262 111.485C310.686 111.458 318.117 112.016 325.554 113.159C342.693 114.074 359.939 114.169 376.602 109.184C402.643 101.345 423.169 86.6127 433.275 60.4244C436.339 52.322 438.463 43.7626 435.789 34.9075C435.978 30.9301 434.07 27.6782 432.162 24.4263C431.336 23.7343 430.684 22.9818 431.551 22.095C432.303 21.4433 433.13 22.1354 433.895 22.6528C435.904 24.5005 437.16 26.9999 438.181 29.385C445.181 48.4795 440.934 65.5981 428.954 81.2852C422.618 89.5419 414.918 96.1189 406.271 101.655C399.996 105 393.781 108.52 387.203 110.992C372.127 116.601 356.311 118.945 340.005 119.307C329.309 119.488 318.667 119.259 308.166 121.133C299.707 122.691 296.207 128.402 298.464 136.619C301.271 146.992 306.169 156.056 312.175 164.931C324.274 185.195 342.594 197.437 364.604 205.077C393.419 214.861 423.095 218.088 453.214 219.205C472.805 219.857 492.618 219.455 512.176 217.186C532.903 214.902 553.199 210.812 573.308 205.613C594.351 200.286 615.092 194.086 636.45 190.802C639.776 190.238 643.162 189.848 646.608 189.634C653.623 189.553 660.865 189.003 667.94 189.097C686.711 189.642 703.843 195.059 720.142 204.284C744.973 218.381 768.487 234.89 793.607 248.691C810.02 257.681 826.029 267.202 842.382 276.018C856.853 283.92 871.21 292.057 886.199 299.192C918.642 314.371 952.267 325.62 988.03 329.478C1011.38 331.959 1034.7 330.932 1057.68 326.694C1059.9 326.318 1062.18 326.117 1064.27 325.391C1065.32 325.028 1066.49 325.015 1067.15 326.352C1058.25 330.02 1048.97 331.471 1039.51 332.982C1032.45 334.056 1025.22 335.191 1018.27 336.031C1009.39 336.951 1000.63 337.636 991.805 337.561C977.717 337.547 963.675 336.538 949.68 334.535C931.352 331.881 913.354 327.351 895.919 321.062C870.268 311.943 845.928 299.828 821.99 287.183C805.228 278.313 789.729 267.442 773.538 257.397C750.165 242.991 725.878 230.466 700.792 219.588C692.038 215.771 682.941 212.66 673.28 211.309C665.218 211.752 657.417 209.561 649.577 208.949C626.412 207.578 603.83 211.285 581.316 215.752C576.358 216.685 571.635 217.733 566.737 218.841C565.225 219.56 563.888 220.218 562.76 218.653Z" fill="#81C348"/><path d="M168.744 228.655C163.685 220.821 158.452 213.047 153.682 204.918C149.987 198.763 146.407 192.374 143.411 185.978C137.66 173.884 130.922 162.328 126.744 149.69C126.502 148.991 126.26 148.292 126.018 147.594C130.674 150.873 133.711 155.69 137.15 159.977C151.5 177.701 164.459 196.493 179.561 213.566C194.368 230.35 211.137 244.89 230.156 256.89C268.666 281.119 310.931 296.419 354.446 308.549C399.312 321.189 445.347 328.73 491.261 335.921C508.245 338.65 525.122 342.198 542.16 344.517C552.231 345.922 561.899 347.857 570.27 353.958C579.051 360.113 584.062 368.941 585.231 379.099C586.413 390.427 579.371 398.341 566.095 397.85C551.476 397.432 539.41 390.263 528.432 381.152C520.464 374.521 513.538 366.942 505.859 360.014C492.571 348.182 476.493 342.988 459.267 339.561C433.898 334.648 407.985 333.249 382.461 330.15C332.819 324.054 285.373 310.742 241.482 286.224C214.77 271.213 191.055 252.427 170.511 229.804C170.269 229.105 169.678 228.528 168.744 228.655Z" fill="#DD214F"/><path d="M390.876 396.288C388.169 384.51 378.576 378.833 369.445 372.799C365.381 370.098 360.799 368.163 357.83 364.105C360.275 363.258 362.109 365.166 363.99 366.08C387.263 376.804 411.436 384.478 437.073 387.342C451.357 389.049 465.862 389.701 479.709 394.103C492.38 397.933 503.848 403.94 513.939 412.184C528.161 423.889 544.608 430.716 561.975 436.246C582.218 442.737 602.635 449.168 621.628 458.83C625.215 460.718 628.635 463.251 631.416 466.201C636.031 471.059 634.694 476.803 628.587 479.504C622.829 482.083 617.212 481.68 611.576 479.523C565.192 461.931 516.799 452.664 467.902 445.331C441.081 441.312 413.999 439.926 387.34 434.678C378.727 432.964 369.832 432.13 361.602 428.132C360.896 427.79 360.016 427.507 359.539 426.694C363.732 425.244 367.924 423.793 372.117 422.342C376.658 420.77 380.999 422.006 385.513 423.182C396.364 426.273 407.543 427.49 418.783 428.881C419.778 428.928 420.772 428.975 421.706 428.848C425.032 428.284 427.88 426.907 428.955 423.796C430.031 420.685 428.129 418.018 425.825 415.881C421.512 411.897 416.399 409.559 410.998 407.516C406.006 405.527 400.954 403.363 395.848 401.609C393.617 400.817 391.091 399.735 390.876 396.288Z" fill="#DD214F"/><path d="M406.023 100.371C417.042 92.6456 427.113 83.8786 433.523 71.8796C441.533 56.5887 443.226 41.1361 434.453 25.3941C433.976 24.5811 433.559 23.9429 432.968 23.3651C432.377 22.7872 432.028 22.9081 432.33 23.7815C432.451 24.1309 432.337 24.366 432.458 24.7154C429.495 21.2418 427.11 17.1769 423.973 13.7638C422.078 11.6809 420.009 9.65852 417.537 8.16687C417.154 5.36522 419.599 4.51882 421.044 3.04082C422.374 1.79797 423.94 0.669339 425.331 -0.398829C422.193 1.27391 419.351 3.23558 416.448 5.02255C415.172 5.85558 414.077 7.21261 412.37 6.23832C411.235 4.08833 408.951 3.70529 407.13 2.96615C397.798 -0.259252 388.177 -3.18906 378.227 -4.24443C368.862 -5.30647 359.55 -6.77841 350.97 -10.6555C340.631 -15.097 332.771 -22.5482 325.542 -31.0005C325.481 -31.1752 325.535 -31.5851 325.636 -32.9892C330.87 -30.3015 335.465 -27.1973 340.457 -25.2084C351.616 -20.6593 363.434 -19.8592 375.124 -19.9929C390.382 -19.9921 405.391 -21.2745 420.669 -19.5201C432.903 -18.0817 444.741 -15.5279 455.685 -9.33955C458.097 -8.02258 460.455 -6.29575 462.061 -3.91729C462.437 -1.70015 464.668 -0.907247 465.796 0.658228C471.439 8.48564 471.419 16.904 467.891 25.3624C464.531 33.1759 458.935 39.6119 454.574 46.7938C449.81 54.5064 447.156 62.6625 447.081 71.4906C447.04 93.4132 436.054 109.147 419.479 121.73C416.872 123.806 413.439 125.19 412.075 128.596C410.348 130.954 407.553 131.922 405.053 133.178C393.954 138.975 382.794 144.598 372.77 152.371C366.279 157.356 366.232 158.35 371.103 165.076C374.784 170.061 379.615 173.279 384.969 176.317C399.501 184.393 415.276 188.714 431.555 191.1C469.266 196.631 506.419 194.336 543.325 185.671C559.416 181.862 574.902 176.307 590.449 170.926C592.72 170.14 594.81 168.83 597.336 169.912C597.947 172.243 596.026 172.908 594.453 173.453C581.869 177.221 570.192 183.61 557.252 186.914C546.294 189.729 535.524 193.652 524.203 195.418C490.059 200.193 455.842 203.625 421.349 198.349C399.857 195.028 378.761 190.593 358.955 181.408C345.908 175.36 335.918 165.712 328.414 153.638C326.09 149.748 324.874 145.67 324.471 141.115C324.028 133.053 327.65 127.691 335.154 124.507C344.93 120.537 355.196 118.549 365.522 116.735C377.132 114.674 388.137 110.865 398.357 104.785C401.32 103.173 403.94 102.266 406.023 100.371Z" fill="#27421D"/><path d="M127.818 177.095C126.192 178.049 126.964 179.151 127.562 180.313C131.747 188.45 135.697 196.472 136.913 205.636C137.222 207.094 137.296 208.437 137.369 209.781C137.248 214.518 135.105 216.238 130.476 215.297C123.912 213.852 119.008 209.29 113.989 204.963C103.952 196.309 95.8234 185.821 85.2085 177.758C80.2572 174.19 75.1378 171.267 68.6878 174.673C67.0619 175.627 65.7115 175.116 65.0465 173.195C58.988 144.385 58.2505 115.691 66.3412 87.07C68.3639 79.9149 69.8558 72.3565 74.3441 66.1085C82.1785 55.964 92.8543 54.0296 104.692 56.5833C110.376 57.7459 115.724 60.1985 120.272 64.2971C125.412 68.9735 131.411 72.1786 137.753 74.6782C143.625 76.9494 148.288 80.8128 151.969 85.7982C153.037 87.189 154.28 88.5193 153.191 90.4609C147.461 85.2067 141.327 80.4832 133.299 78.7628C128.434 77.7077 124.759 78.3928 121.051 81.2412C113.223 86.8844 109.81 95.1077 108.862 104.238C107.746 114.014 109.492 123.581 111.823 133.141C114.523 144.335 119.32 154.802 123.243 165.572C124.459 169.651 127.186 173.01 127.818 177.095Z" fill="#3E6831"/><path d="M634.61 300.784C643.485 304.95 650.747 311.239 657.606 318.059C660.979 321.586 662.134 325.49 660.434 330.186C658.674 334.708 655.133 336.911 650.168 337.26C645.613 337.663 641.044 336.897 636.872 335.015C616.368 326.072 594.734 320.649 573.323 314.171C570.917 313.439 567.941 313.882 565.926 311.45C574.236 312.29 582.722 313.07 590.986 314.904C602.938 317.223 614.668 320.596 626.345 324.379C629.22 325.34 632.089 325.717 635.065 325.273C638.801 324.763 639.486 323.352 637.404 320.161C633.897 315.115 629.295 311.426 623.826 308.624C615.71 304.391 607.198 301.273 598.175 299.506C589.858 298.081 581.419 296.307 573.156 294.472C549.654 289.304 525.582 290.398 501.778 289.443C458.034 287.956 414.29 286.468 371.117 278.72C334.152 271.952 298.43 261.429 264.852 244.1C229.627 225.971 202.432 199.391 181.358 166.194C172.013 151.628 163.018 136.94 156.287 120.883C154.366 116.462 153.204 111.974 152.216 107.425C155.73 113.056 157.093 119.821 160.083 125.633C179.813 163.99 202.788 199.855 238.684 225.575C266.269 245.37 297.335 257.7 329.94 266.563C373.394 278.518 417.696 282.747 462.549 284.046C497.344 285.109 532.059 284.244 566.975 285.657C590.261 287.378 613.212 290.39 634.61 300.784Z" fill="#FBE4AD"/><path d="M411.947 127.662C410.865 125.102 413.553 124.955 414.48 124.243C422.596 118.304 429.886 111.673 435.873 103.537C442.088 94.9313 445.428 85.3643 445.596 74.5474C445.731 60.808 450.858 49.0576 458.8 38.0934C463.289 31.8454 468.187 25.6512 469.027 17.3404C469.713 10.8436 468.013 5.36795 463.922 0.32883C462.914 -0.887284 461.618 -1.80788 462.357 -3.62857C464.708 -2.48629 466.428 -0.342953 469.008 0.329046C469.565 3.07023 471.749 4.85755 473.408 6.82616C476.787 10.9381 478.305 15.8897 480.173 20.7204C480.475 21.5939 480.838 22.642 481.778 23.0989C483.015 23.8447 483.673 25.1817 483.982 26.6397C486.252 36.0256 486.185 45.4382 484.128 54.7567C483.624 56.6916 483.241 58.9759 481.031 59.9365C478.948 61.8311 479.156 64.6932 478.014 67.0446C471.147 79.9841 462.862 91.6538 451.453 101.079C445.836 105.762 440.401 110.968 433.951 114.374C433.602 114.495 433.494 115.315 433.501 115.899C433.171 117.774 431.485 118.553 430.269 119.561C426.036 122.591 421.326 124.807 416.798 127.548C414.99 127.978 413.593 128.462 411.947 127.662Z" fill="#3E6731"/><path d="M153.252 90.6356C149.664 83.6616 144.055 78.7567 136.597 75.8606C130.49 73.4752 124.901 70.3239 119.882 65.9969C110.376 57.746 99.2367 54.9505 87.0625 58.7727C82.4602 60.1699 78.1669 63.0251 74.4648 66.458C82.6221 48.7686 106.359 38.7928 124.264 45.3108C125.144 45.593 125.916 46.695 126.897 45.573C140.791 54.066 151.278 66.2809 161.066 78.7376C167.771 87.3713 172.91 97.1335 174.387 108.75C175.213 114.528 176.859 120.413 177.685 126.191C178.572 132.144 180.506 137.734 181.917 143.505C182.28 144.554 182.293 145.723 181.722 146.898C172.72 131.627 167.265 114.736 158.787 99.2827C157.289 96.0846 154.978 93.3634 153.252 90.6356Z" fill="#27421D"/><path d="M592.845 349.666C598.025 347.678 602.667 349.788 607.074 351.783C617.891 357.038 628.083 363.878 638.556 369.838C646.383 374.366 654.667 377.955 662.091 383.014C662.857 383.531 663.797 383.988 664.449 384.741C666.753 386.877 668.245 389.491 667.405 392.716C666.504 395.766 663.77 396.908 660.672 397.002C652.375 397.331 644.857 394.26 637.4 391.364C622.485 385.572 608.598 377.663 594.886 369.694C591.943 367.974 589.518 365.488 587.906 362.525C585.272 357.177 587.255 351.601 592.845 349.666Z" fill="#DE214E"/><path d="M425.64 353.742C435.147 351.821 445.037 352.701 454.476 355.107C461.161 356.901 467.906 358.87 473.852 362.485C476.559 364.091 478.978 365.993 477.91 369.688C476.666 373.443 473.159 373.483 470.237 373.517C463.048 373.657 455.839 372.045 448.865 370.546C441.011 368.765 433.097 366.81 425.008 364.915C422.018 364.189 419.66 362.462 419.855 359.069C419.876 355.737 422.966 355.058 425.64 353.742Z" fill="#DD214F"/><path d="M369.053 57.4176C379.904 55.4228 389.196 50.0552 398.844 45.1512C399.657 44.6742 400.866 43.082 401.699 44.3586C402.532 45.6352 400.906 46.5891 400.214 47.4154C395.531 51.9703 389.901 55.4838 384.089 58.4732C378.627 61.3417 372.748 63.572 366.99 66.1516C366.291 66.3934 365.592 66.6352 364.894 66.877C362.677 67.2532 360.231 68.0996 359.028 65.1904C357.886 62.4559 360.09 60.9108 362.126 60.0106C364.451 58.8148 366.782 58.2035 369.053 57.4176Z" fill="#F1C546"/><path d="M412.484 6.00298C417.826 2.78509 422.63 -1.42042 429.039 -3.24751C426.231 1.63671 421.111 3.79972 417.651 7.93142C411.214 12.5064 404.542 16.9671 398.106 21.5421C397.468 21.9586 396.715 22.6104 396.016 22.8522C394.095 23.5172 391.716 25.1228 390.4 22.4487C389.143 19.9494 391.172 18.4646 393.148 17.3898C398.61 14.5213 403.898 11.7132 409.004 8.38111C410.106 7.60854 411.208 6.83601 412.484 6.00298Z" fill="#ECC247"/><path d="M573.189 420.042C570.327 420.25 567.337 419.524 564.919 417.622C564.092 416.93 563.145 415.889 564.066 414.592C564.697 413.591 565.92 413.168 567.035 413.565C569.266 414.357 571.496 415.15 573.727 415.943C574.842 416.34 575.608 416.857 575.621 418.026C575.521 419.43 574.291 419.269 573.189 420.042Z" fill="#CE204E"/><path d="M366.193 16.9382C364.91 17.1867 362.935 18.2616 362.74 16.5685C362.397 12.188 367.02 12.5444 369.277 10.5894C370.03 9.93778 371.494 10.2133 371.508 11.3823C371.313 14.7752 368.222 15.4535 366.193 16.9382Z" fill="#D9B34A"/><path d="M1241.48 0.378442C1234.17 0.169758 1226.93 0.135778 1219.56 -0.247592C1209.2 -0.772216 1198.85 -1.29683 1188.39 -1.00178C1187.58 0.0597069 1186.65 0.18732 1185.48 0.200698C1159.35 0.441129 1133.48 2.54929 1107.8 6.35057C1091.98 8.69447 1075.99 11.0989 1060.37 14.5513C1047.65 17.3858 1034.76 19.6963 1021.69 21.4827C1004 24.0818 986.065 24.8131 968.005 25.1951C949.301 25.409 930.764 24.978 912.047 24.023C893.678 22.947 875.343 24.7936 857.069 26.8148C839.842 28.4734 823.288 32.638 806.498 36.6883C789.533 40.7991 772.569 44.91 755.611 49.6053C740.984 53.6893 726.607 59.0566 712.706 65.2369C704.038 69.019 695.197 72.8615 686.59 76.8182C676.935 81.1377 667.227 85.867 657.814 90.8852C642.938 98.772 627.7 105.611 612.462 112.449C598.911 118.509 584.802 121.827 570.33 124.097C563.967 124.93 557.598 125.178 551.202 123.088C543.281 120.548 540.13 115.966 540.796 107.715C541.3 100.695 543.504 94.0635 546.589 87.7147C559.906 61.1974 576.348 36.9242 594.496 13.6253C595.188 12.799 596.055 11.9122 596.807 11.2605C606.865 1.32437 616.688 -8.72605 627.103 -18.1986C639.25 -29.4448 652.997 -38.8969 668.537 -44.8622C679.596 -49.0808 691.407 -48.8651 703.165 -48.2397C723.461 -47.2442 743.624 -47.7671 763.518 -51.3269C781.893 -54.7523 800.282 -57.0087 818.657 -60.4342C837.731 -64.1014 857.047 -67.0699 876.564 -67.7609C880.011 -67.9757 883.404 -67.7807 886.857 -67.411C905.649 -65.1122 924.541 -64.2176 943.494 -63.1483C963.441 -62.0319 983.456 -60.1563 1003.52 -59.2751C1013.05 -58.858 1022.93 -58.5618 1032.45 -59.8983C1038.58 -60.2608 1044.53 -61.1473 1050.67 -61.5097C1058.09 -62.1207 1065.43 -64.0755 1072.89 -65.6808C1077.62 -66.7286 1082.39 -68.1863 1086.52 -70.3964C1094.25 -74.6354 1102.69 -77.3626 1111.08 -80.2646C1114.92 -81.5946 1119.01 -81.6415 1122.93 -81.0433C1130.78 -79.847 1133.6 -73.9748 1129.76 -66.9743C1128.21 -64.0922 1126.08 -61.7878 1123.52 -60.1217C1105.54 -48.2242 1086.95 -37.489 1066.33 -30.9396C1061.56 -29.4819 1056.6 -28.5483 1051.88 -27.5005C1047.68 -26.634 1043.72 -25.0688 1040.54 -21.8172C1038.12 -19.2173 1038.15 -16.2947 1039.47 -13.0362C1040.91 -10.0127 1043.19 -10.2142 1045.88 -10.3618C1053.88 -10.9795 1061.09 -13.8681 1068.25 -16.9313C1082.96 -23.5886 1098.03 -29.7822 1112.69 -36.6142C1131.41 -45.2465 1151.06 -50.0894 1171.37 -52.4264C1184.16 -53.9172 1196.58 -51.3702 1208.9 -48.0035C1217.52 -45.7053 1226.03 -42.5874 1234.02 -38.7036C1242.08 -34.6452 1250.56 -34.4499 1258.82 -37.7012C1269.36 -41.7385 1271.77 -50.5934 1264.65 -59.8654C1260.43 -65.2539 1255.07 -69.4599 1248.83 -72.7792C1230.3 -82.7976 1210.49 -87.4815 1189.58 -85.7224C1178.72 -84.8966 1167.93 -82.7272 1157.69 -78.401C1152.57 -76.2379 1147.32 -75.0087 1141.87 -76.6416C1134.54 -78.6038 1131.96 -84.3617 1135.85 -91.1875C1138.89 -96.542 1143.64 -100.338 1149.05 -102.796C1160.33 -108.07 1172.47 -109.729 1184.93 -108.761C1196.4 -107.839 1207.43 -104.809 1218 -100.253C1231.75 -94.4475 1245.33 -87.9969 1257.75 -79.7795C1266.35 -74.1489 1273.33 -66.9798 1281.07 -60.4624C1289.98 -52.7894 1299.47 -45.7075 1308.68 -38.33C1313.52 -34.527 1317.66 -29.8977 1321.17 -24.8519C1326.82 -16.44 1324.12 -7.28956 1314.52 -3.3799C1308.17 -0.793622 1301.41 0.569891 1294.63 0.764352C1278.5 1.06579 1262.42 0.957379 1246.35 1.43351C1244.77 1.39311 1243.07 1.00336 1241.48 0.378442Z" fill="#090B0F"/><path d="M1241.48 0.378276C1253.87 0.00273282 1266.32 -0.198113 1278.71 -0.573655C1289.76 -0.875392 1300.82 -0.00814001 1311.47 -3.69603C1314.62 -4.78426 1317.53 -5.98671 1319.78 -8.52618C1323.81 -13.2491 1324.12 -17.4615 1320.9 -22.8029C1315.24 -31.7994 1307.1 -38.3706 1298.49 -44.5857C1285.88 -53.9117 1275.22 -65.4817 1262.43 -74.7472C1240.5 -90.6311 1216.34 -102.222 1189.46 -107C1175.92 -109.359 1162.91 -107.398 1150.29 -102.051C1144.99 -99.8273 1141.06 -95.924 1137.66 -91.6176C1135.47 -88.9034 1134.58 -85.2688 1136.31 -81.9565C1138.46 -78.0058 1143.02 -77.8242 1146.82 -77.5754C1149.4 -77.4879 1152.26 -77.696 1154.76 -78.9522C1164.18 -83.3859 1174.1 -85.2531 1184.31 -86.8314C1206.08 -90.0619 1226.47 -85.9692 1246.16 -76.5487C1253.86 -72.9538 1260.29 -67.9414 1265.86 -61.4577C1273.97 -52.1387 1271.24 -40.8249 1259.77 -36.66C1249 -32.737 1239.21 -35.0218 1229.16 -39.7589C1211.76 -47.6273 1193.52 -52.8553 1174.3 -51.8755C1161.8 -51.2648 1149.5 -48.3765 1137.61 -44.8499C1121.47 -40.047 1106.42 -32.6843 1090.94 -25.9599C1078.38 -20.438 1065.82 -14.3316 1052.42 -10.6707C1049.56 -9.87807 1046.59 -9.43481 1043.55 -9.16622C1039.75 -8.83051 1038.73 -11.8001 1037.35 -14.6489C1035.67 -18.371 1036.98 -21.3675 1039.41 -23.9674C1042.7 -27.4542 1047.13 -28.7909 1051.5 -29.7178C1068.36 -33.0089 1083.78 -39.3235 1098.64 -47.7948C1107.82 -52.9272 1117.06 -57.885 1125.11 -64.5829C1125.69 -65.1741 1126.27 -65.7653 1126.84 -66.3565C1129.67 -69.4872 1130.92 -73.2428 1129.24 -76.9649C1127.56 -80.6871 1123.34 -80.9897 1119.66 -80.8891C1110.37 -80.6074 1101.76 -77.2352 1093.8 -73.1105C1077.29 -64.8543 1059.79 -61.1466 1041.74 -60.1801C1038.88 -59.972 1035.91 -58.3598 1032.98 -59.4954C1033.03 -59.9052 1033.32 -60.2008 1033.61 -60.4964C1034.01 -61.0271 1033.37 -60.6106 1033.37 -60.6106C1027.02 -59.1933 1020.58 -59.7043 1014.32 -60.2757C993.084 -61.7281 972.129 -64.0606 950.999 -66.3326C946.491 -66.9241 942.487 -69.4505 937.804 -69.9815C929.668 -70.8823 921.592 -71.6083 913.463 -71.9245C891.413 -72.8999 870.021 -77.6242 848.354 -80.8839C826.217 -84.372 804.066 -89.0292 781.545 -90.2331C757.446 -91.4773 733.555 -89.8594 710.913 -81.2408C683.904 -71.1107 659.522 -56.2171 638.707 -36.103C625.349 -23.2646 613.175 -9.27057 602.297 5.64398C600.798 7.5318 598.769 9.01646 598.037 11.4217C584.955 27.8813 572.995 45.322 562.036 63.3943C555.149 74.5803 548.262 85.7662 544.431 98.4372C543.249 102.367 542.536 106.526 542.583 110.618C542.576 115.119 545.069 118.364 549.066 120.306C555.589 123.33 562.604 123.25 569.551 122.41C587.18 120.221 603.775 114.478 620.061 107.276C641.581 97.6767 661.852 86.1622 683.311 76.3879C710.818 63.7384 738.566 51.7877 768.235 44.2579C784.206 40.0999 800.236 36.1167 816.267 32.1335C833.755 27.8413 851.613 25.1818 869.599 23.4561C894.182 21.0119 918.463 22.7802 942.905 23.3191C962.96 23.6158 983.008 23.328 1003.16 21.6361C1022.37 20.0717 1041.1 16.5253 1059.94 12.7438C1078.19 8.96901 1096.86 5.83248 1115.36 3.34095C1139.71 0.198004 1164.3 -1.6617 1188.85 -1.358C1188.99 0.744909 1187.47 0.879191 1186.07 0.778331C1170.17 0.609494 1154.41 3.12812 1138.65 5.06218C1127.38 6.41872 1116.06 7.6005 1105.15 10.0051C1093.31 12.5374 1081.65 15.0092 1069.93 17.8908C1060.02 20.3425 1050.17 22.9689 1040.32 25.0108C1030.23 26.9384 1020.37 28.9803 1010.21 30.1488C996.142 31.8881 982.127 33.2176 968.045 33.7879C955.891 34.2777 943.731 34.183 931.564 33.5038C917.408 32.7303 903.245 31.3724 889.284 32.2921C880.872 32.856 872.521 33.5945 864.116 34.7429C856.296 35.8847 848.536 37.2011 840.715 38.3428C831.786 39.6726 822.803 41.4122 814.056 43.266C808.573 44.381 802.916 45.5564 797.495 46.8461C787.934 49.1769 778.138 51.3934 768.517 53.5496C755.221 56.3908 742.469 60.8042 729.777 65.3922C713.417 71.2499 697.595 78.0952 681.893 85.2899C666.83 92.068 652.008 99.5449 637.066 106.672C619.275 115.177 601.181 122.808 582.43 129.103C575.093 131.642 567.635 133.832 559.875 135.148C556.811 138.165 552.659 138.037 548.689 138.433C540.049 139.467 531.395 139.332 523.333 134.689C518.214 131.766 515.184 127.534 514.647 121.46C513.304 106.276 519.768 93.8672 528.462 82.2514C528.865 81.7206 529.504 81.3041 530.202 81.0623C535.793 74.0417 540.086 66.1006 544.736 58.6232C552.886 45.4351 560.331 31.9044 568.307 18.7768C575.651 6.65026 583.465 -5.24778 590.87 -17.1996C598.274 -29.1515 606.74 -40.2972 615.145 -51.6174C627.179 -67.7144 640.335 -82.8303 654.377 -97.0796C663.623 -106.539 673.876 -114.782 684.962 -121.748C697.613 -129.843 711.165 -135.903 724.649 -142.721C737.959 -149.479 752.236 -153.443 765.976 -158.393C777.619 -162.619 789.988 -164.748 802.055 -167.75C808.175 -169.282 814.477 -170.289 820.773 -171.881C827.592 -173.655 834.6 -174.319 841.721 -175.219C849.717 -176.421 857.537 -177.563 865.478 -178.355C874.589 -179.161 883.585 -179.732 892.816 -180.188C906.314 -180.752 919.872 -181.141 933.268 -180.3C939.47 -179.903 945.61 -179.681 951.932 -178.935C961.298 -177.873 970.664 -176.811 980.09 -175.574C991.276 -173.773 1002.4 -172.147 1013.59 -170.345C1033.44 -167.24 1052.33 -161.26 1070.21 -151.994C1073.33 -150.334 1076.1 -147.969 1078.53 -145.483C1083.5 -140.162 1081.62 -135.405 1073.77 -132.1C1064.16 -128.775 1054.56 -124.865 1044.47 -122.938C1037.47 -121.689 1030.16 -121.897 1023.03 -121.582C1019.76 -121.428 1016.53 -122.267 1013.45 -121.005C1011.95 -119.117 1009.78 -119.735 1008.03 -119.715C970.358 -121.739 932.808 -123.414 895.171 -122.516C886.229 -122.355 877.595 -120.737 868.895 -119.877C867.027 -119.622 864.991 -118.722 863.11 -119.636C856.869 -118.453 851.702 -115.296 846.3 -112.253C842.349 -110.103 838.338 -108.128 836.168 -103.66C835.14 -101.544 835.449 -100.086 837.048 -98.2923C841.247 -94.0728 846.984 -93.32 852.372 -92.4463C866.602 -90.3291 881.054 -89.2668 895.324 -88.7285C905.617 -88.3786 915.916 -87.4442 926.209 -87.0943C946.62 -86.3339 966.916 -85.3385 987.267 -84.7528C1007.21 -84.221 1027.26 -84.5088 1047.28 -87.1346C1063.97 -89.1963 1080.06 -93.0048 1095.9 -98.6811C1109.12 -103.45 1122.45 -107.871 1135.84 -112.7C1153.6 -119.042 1171.42 -119.538 1189.7 -115.889C1213.08 -111.07 1233.78 -100.434 1253.23 -87.2106C1268.07 -77.0917 1281.6 -65.1454 1296.73 -55.322C1303.74 -50.9009 1311.04 -46.7753 1317.36 -40.9432C1322.5 -36.2669 1327.24 -31.0598 1330.52 -24.9592C1335.65 -15.7813 1330.24 -3.15074 1320.47 0.819362C1310.17 4.97084 1299.59 5.50099 1288.82 4.33809C1276.24 3.02057 1263.73 3.04676 1251.16 2.89826C1247.53 2.58901 1244.03 3.21363 1241.48 0.378276Z" fill="#DD214F"/><path d="M411.947 127.662C418.108 124.552 424.034 121.327 429.779 117.579C430.88 116.806 431.868 116.269 433.03 115.671C438.237 116.02 443.008 113.978 448.154 114.153C458.621 114.443 460.381 120.093 460.179 127.987C460.152 130.735 459.655 133.255 459.218 135.949C456.98 149.829 465.848 158.497 476.477 162.643C489.1 167.467 501.772 166.211 514.544 163.552C534.78 159.286 554.164 151.991 573.251 144.407C594.55 135.862 615.364 125.92 635.702 115.165C647.09 109.072 659.197 104.49 670.706 98.7465C690.587 88.9318 711.307 80.9783 732.33 73.8981C739.667 71.3589 747.259 70.6874 754.535 67.9735C755.684 66.2066 757.727 65.891 759.42 65.6963C779.246 61.3773 799.254 57.5824 819.766 56.9386C838.934 56.3686 857.39 59.9573 874.958 67.7652C886.709 72.8921 898.694 78.1332 911.473 81.1438C925.716 84.43 939.455 84.5651 953.544 79.4934C966.236 74.9053 977.503 68.4629 988.408 60.9723C995.019 56.3369 1001.63 51.7015 1009.31 48.4568C1013.21 46.717 1017.16 45.1518 1021.54 44.8093C1027.97 44.1513 1031.46 48.028 1030.19 54.5315C1029.47 58.1057 1027.81 61.2231 1025.51 64.1724C1019.46 72.1335 1012 78.8248 1005.06 85.9191C999.861 91.2399 994.19 96.3323 989.642 102.406C989.01 103.407 988.318 104.233 986.853 103.957C974.665 121.868 967.468 141.768 964.968 163.368C963.684 173.789 962.165 184.095 963.629 194.542C964.636 200.844 965.059 207.153 966.067 213.455C966.382 215.497 966.523 217.6 964.602 218.265C962.68 218.93 961.955 216.834 961.061 215.383C954.108 205.466 953.45 193.957 952.383 182.394C951.376 171.006 954.171 159.867 957.088 149.077C957.37 148.197 957.713 147.492 957.41 146.618C957.397 140.364 959.843 134.431 961.295 128.452C962.249 124.992 962.619 121.538 962.753 117.971C962.861 112.065 959.616 109.472 953.724 110.533C951.507 110.909 949.652 112.333 947.556 113.059C942.033 115.753 938.526 120.879 935.072 125.595C925.518 138.682 919.665 153.422 916.339 169.244C914.564 177.683 915.189 186.269 915.753 194.681C916.035 198.886 916.082 202.978 915.544 207.076C914.731 212.639 911.304 214.608 906.017 212.33C901.435 210.394 897.659 207.398 894.287 203.87C891.21 200.632 888.018 197.628 885.405 194.034C884.572 192.757 883.275 191.837 881.865 191.151C879.742 189.539 877.733 187.691 875.55 185.904C859.674 172.815 841.333 168.992 821.547 171.732C816.877 172.37 812.389 173.532 807.774 173.76C805.61 173.726 804.132 172.282 802.54 171.072C796.877 166.577 791.737 161.901 786.248 157.345C785.126 156.364 783.944 155.209 782.419 154.758C771.623 146.172 759.18 141.871 745.824 139.452C720.986 134.942 696.752 137.265 672.336 144.15C652.174 149.759 633.57 158.741 613.891 165.747C610.048 167.077 606.507 169.281 602.429 170.497C600.796 170.866 599.11 171.645 597.403 170.671C588.319 173.815 579.41 176.898 570.266 179.867C523.908 195.129 476.73 200.112 428.357 192.598C410.788 189.876 394.012 184.923 379.05 175.04C374.22 171.821 370.491 167.83 367.22 162.899C364.781 159.244 365.339 156.899 368.524 154.232C376.398 147.594 385.287 142.757 394.29 137.685C400.384 133.816 406.673 131.639 411.947 127.662Z" fill="#090B0F"/><path d="M480.91 59.5872C485.506 47.4336 484.781 35.1655 481.718 22.9242C487.61 16.7771 493.382 10.2806 499.51 4.24767C512.921 -9.00054 527.044 -21.3216 541.879 -32.7154C556.136 -43.518 570.991 -53.1583 588.11 -59.0831C591.08 -60.1109 593.996 -60.7288 597.328 -60.7085C603.234 -60.6007 605.666 -57.5301 603.744 -51.7792C601.54 -45.1481 598.16 -39.0882 594.485 -33.3172C578.923 -8.7618 561.944 14.5238 543.494 36.9492C532.596 50.1102 520.032 60.7181 502.771 64.54C497.874 65.6483 493.023 65.7622 488.105 65.1169C484.652 64.7472 482.461 62.3755 480.91 59.5872Z" fill="#090B0F"/><path d="M529.914 81.3579C526.48 87.8277 522.045 93.6658 519.143 100.539C515.958 108.292 514.936 116.078 516.024 124.309C516.655 128.394 519.437 131.343 522.91 133.466C530.683 138.405 539.276 138.365 547.916 137.331C551.712 136.995 555.629 137.009 559.177 135.39C559.66 136.787 559.788 137.721 557.806 138.212C545.45 141.51 533.101 145.392 520.511 148.576C515.848 149.799 510.89 150.732 505.857 150.322C497.668 149.831 492.454 143.811 491.487 135.93C490.325 126.356 494.626 119 500.102 112.215C508.346 102.124 517.181 92.6108 525.721 82.8089C527.051 81.566 528.032 80.4441 529.914 81.3579Z" fill="#7F112C"/><path d="M807.586 172.651C826.491 189.973 844.757 207.711 862.796 225.919C873.323 236.555 884.314 246.835 896.172 256.228C904.724 262.853 913.565 269.182 922.695 275.216C938.954 286.02 956.065 294.769 973.923 302.281C990.604 309.222 1007.97 314.753 1026.01 317.703C1035.79 319.403 1045.57 320.519 1055.51 320.99C1065.8 321.34 1076.46 322.738 1087.28 317.821C1086.24 319.352 1085.84 319.883 1085.44 320.414C1081.36 321.63 1077.34 323.02 1073.26 324.236C1057.22 327.635 1041.01 330.509 1024.51 329.178C1007.01 327.8 989.952 323.727 973.062 319.01C941.505 309.784 911.884 295.976 883.976 278.64C868.255 268.824 854.087 256.709 839.75 245.24C821.342 230.485 802.585 215.851 781.019 206.101C748.757 191.446 715.057 183.94 679.388 188.265C670.164 189.306 660.986 189.352 651.762 190.393C650.243 190.527 648.732 191.246 647.267 190.97C634.602 192.811 621.998 194.826 609.643 198.124C601.191 200.266 592.564 202.47 584.112 204.612C565.636 209.442 547.213 213.862 528.482 216.824C488.567 223.009 448.692 222.53 408.764 217.375C388.918 214.854 369.454 210.049 351.181 201.899C334.257 194.259 320.908 182.252 311.254 166.228C310.771 164.83 311.765 164.877 312.585 164.985C314.284 165.375 315.292 166.591 316.125 167.867C329.79 187.002 349.373 197.243 371.195 203.774C395.892 211.267 421.409 213.781 447.134 214.071C476.077 214.617 504.866 211.891 533.138 204.845C551.151 200.371 568.559 194.151 585.725 187.232C601.38 181.031 616.907 173.897 632.32 166.998C646.281 160.992 660.303 155.161 674.506 149.855C703.027 139.006 732.185 137.912 761.901 144.646C768.7 146.205 774.928 148.94 780.699 152.615C781.7 153.247 782.412 154.174 783.81 153.69C787.035 154.53 788.761 157.258 791.18 159.159C796.433 163.601 801.405 168.922 807.586 172.651Z" fill="#27421D"/><path d="M562.76 218.653C588.472 212.688 614.426 207.422 640.85 207.471C651.841 207.579 662.665 208.332 673.166 211.544C660.461 214.963 647.87 218.147 635.226 221.741C621.298 225.583 607.605 229.54 593.738 233.556C578.823 237.936 563.961 241.906 548.864 245.762C526.364 251.397 503.601 254.581 480.704 256.245C460.844 257.642 441.031 258.044 420.97 257.163C393.773 256.012 366.966 253.162 340.415 247.094C315.389 241.476 291.095 233.452 268.333 221.378C247.043 210.164 228.809 195.348 214.789 175.749C211.108 170.764 207.426 165.779 205.021 159.96C204 157.575 202.918 155.015 205.116 152.886C207.602 150.46 210.249 151.892 212.956 153.498C217.37 156.078 219.936 160.667 223.658 164.073C224.605 165.115 225.727 166.096 226.675 167.137C228.777 172.082 232.674 175.428 236.685 178.539C246.533 186.084 255.576 194.691 265.714 201.941C280.508 212.47 296.726 219.767 313.804 225.593C347.96 237.245 383.38 241.809 419.17 242.919C442.678 243.586 465.991 242.559 489.399 239.544C510.354 236.79 530.584 231.94 550.491 224.464C554.563 222.664 558.574 220.689 562.76 218.653Z" fill="#000"/><path d="M169.365 47.8931C172.032 51.0778 175.909 52.6704 179.382 54.7937C184.797 58.0054 188.062 62.3525 189.123 68.2447C190.097 71.6241 189.781 74.6676 189.002 78.0672C187.711 82.8171 187.066 87.7351 188.235 92.8076C188.423 93.9162 188.436 95.0852 188.45 96.2542C188.235 97.8935 187.61 99.4791 185.688 100.144C183.941 100.749 182.873 99.3579 182.161 98.4307C180.441 96.2874 178.547 94.2045 177.526 91.8194C172.541 80.2431 164.95 70.7426 156.834 61.4236C151.03 54.8256 143.949 49.0608 139.649 41.1596C138.454 38.8349 136.727 36.1071 138.803 33.6281C140.879 31.149 143.93 32.0495 146.745 32.8357C152.785 34.4619 157.333 38.5605 162.109 42.1888C164.239 44.3858 166.772 46.0521 169.365 47.8931Z" fill="#000"/><path d="M325.675 113.508C318.191 113.36 310.76 112.802 303.343 113.413C286.345 114.601 280.13 123.207 285.174 140.044C286.874 145.52 289.561 150.458 291.959 155.692C286.409 161.134 284.078 161.745 276.782 157.62C267.074 152.177 258.978 144.611 250.654 137.516C240.913 129.151 231.461 120.49 224.03 109.761C221.713 106.455 220.268 102.847 219.288 98.8829C218.421 94.6838 222.983 89.7795 228.123 89.37C233.847 88.9537 239.236 89.8274 244.583 92.28C266.915 102.547 290.645 107.245 314.603 111.472C318.352 112.131 322.262 111.56 325.675 113.508Z" fill="#090B0F"/><path d="M204.063 106.891C201.658 101.072 200.06 94.1925 200.913 87.0507C201.283 83.5974 201.646 79.5596 205.731 78.9283C209.876 78.4717 211.556 82.1938 212.94 85.627C213.658 87.1387 214.552 88.59 213.463 90.5316C208.182 99.0101 211.951 106.508 216.358 113.59C227.375 131.294 243.821 143.207 260.039 155.59C271.185 164.056 281.524 173.583 291.111 183.762C292.71 185.556 294.658 187.229 293.113 190.111C291.507 192.819 289.001 193.491 286.072 192.94C276.934 191.407 269.8 186.052 262.551 180.932C250.471 172.594 239.198 163.194 229.598 151.846C224.385 145.826 219.863 138.979 215.866 131.951C211.392 124.111 207.093 116.21 204.063 106.891Z" fill="#000"/><path d="M390.876 396.288C392.489 399.251 395.593 399.742 398.293 400.763C405.341 403.606 412.442 406.038 419.497 409.465C422.083 410.721 424.381 412.273 426.564 414.061C429.809 416.654 432.241 419.725 431.065 424.24C430.111 427.7 424.823 430.508 420.201 430.151C408.323 429.176 396.377 427.442 384.882 424.183C380.777 423.061 376.625 422.933 372.527 422.395C376.591 420.011 380.717 417.8 383.834 414.374C388.511 409.235 390.957 403.302 390.876 396.288Z" fill="#000"/><path d="M783.46 153.811C783.198 156.445 781.713 154.416 781.243 154.187C776.722 152.427 772.718 149.9 768.082 148.375C752.824 143.288 736.915 142.535 720.891 142.017C709.02 141.626 697.779 145.321 686.237 148.142C673.646 151.326 662.191 156.66 650.198 161.006C638.79 165.346 627.63 170.969 616.463 176.007C609.368 179.245 602.213 182.308 595.057 185.371C580.747 191.498 566.073 196.576 551.453 201.245C527.864 208.822 503.711 213.073 478.886 214.819C455.344 216.316 431.957 215.999 408.657 213.108C385.532 210.158 363.025 205.037 342.433 193.581C331.315 187.453 322.272 178.846 314.674 168.761C313.962 167.834 313.754 164.972 311.254 166.228C304.019 157.191 299.108 146.959 296.468 135.94C294.447 127.837 298.995 121.764 307.219 120.092C320.811 117.539 334.738 118.783 348.464 117.749C361.431 116.782 374.035 114.767 386.377 110.3C393.304 107.707 399.633 103.952 406.258 100.486C402.509 104.913 397.208 106.552 392.384 109.004C380.122 115.399 366.409 117.602 352.938 120.504C346.408 121.982 339.71 124.104 333.488 127.04C324.418 131.353 324.612 143.218 329.442 151.522C339.102 168.131 353.547 178.78 371.445 184.714C390.458 191.044 409.74 195.325 429.526 197.67C450.306 200.063 471.227 199.473 492.075 197.54C505.741 196.331 519.46 194.713 532.877 192.221C536.727 191.475 540.691 190.494 544.359 189.225C553.268 186.142 562.547 184.691 571.214 180.909C579.182 177.369 587.453 174.702 595.428 171.746C596.126 171.504 596.879 170.853 597.457 170.261C614.099 163.524 630.855 156.551 647.679 150.337C678.82 138.581 710.774 131.435 744.339 137.423C758.69 139.889 772.241 144.002 783.46 153.811Z" fill="#3E6731"/><path d="M597.922 11.6569C596.733 9.91669 598.185 9.02323 598.991 7.96175C615.278 -14.4974 633.688 -35.344 655.766 -52.3742C669.963 -63.3515 685.651 -71.7153 702.112 -78.9771C730.787 -91.64 760.752 -93.795 791.361 -90.6961C821.386 -87.5905 850.914 -81.9654 880.495 -76.7502C899.65 -73.4033 919.167 -74.0942 938.086 -70.8616C947.459 -69.215 956.898 -66.8093 966.438 -65.8077C986.103 -63.8112 1005.77 -61.8147 1025.48 -60.8125C1028.64 -60.7317 1031.67 -61.0003 1035.77 -61.0471C1034.32 -60.1536 1033.5 -59.6766 1032.86 -59.2601C1019.85 -57.299 1006.57 -57.7902 993.527 -58.7517C965.618 -60.8293 937.951 -62.2081 910.103 -64.111C899.69 -64.8103 889.202 -66.8533 878.681 -66.7329C865.237 -66.5792 851.981 -65.3168 838.914 -62.9459C819.893 -59.6884 800.933 -56.2563 781.792 -53.3482C768.953 -51.4476 756.295 -49.0229 743.449 -47.7068C731.188 -46.3974 719.081 -46.9019 707.035 -47.2318C693.235 -47.5416 679.079 -48.315 665.93 -42.7864C657.203 -39.1791 649.846 -33.3074 641.951 -28.4235C629.179 -20.6777 620.316 -8.41688 609.318 1.06237C605.091 4.6767 602.216 8.80172 597.922 11.6569Z" fill="#EF476F"/><path d="M813.965 -10.6905C791.135 -3.18045 768.547 5.02832 746.261 14.1105C723.975 23.1928 702.105 32.9133 681.674 45.6572C665.885 55.4251 650.035 65.0183 633.95 74.4972C624.658 79.8648 614.574 82.377 603.562 80.5154C596.474 79.2519 593.108 76.309 591.799 69.1336C589.508 57.9941 592.492 47.9635 598.29 38.7191C609.72 20.8753 624.34 6.03488 639.726 -8.28818C645.336 -13.5552 651.598 -18.0697 658.102 -21.8855C668.147 -27.9048 678.728 -27.8504 689.968 -26.4591C702.263 -24.8459 714.679 -22.8834 727.128 -23.0843C738.523 -23.507 749.783 -25.448 760.99 -26.9792C776.342 -28.967 791.586 -30.1352 807.039 -28.4413C815.82 -27.3726 824.87 -28.3529 833.698 -28.2786C834.867 -28.2919 836.036 -28.3053 837.091 -28.0836C840.43 -27.4787 841.579 -24.1597 839.502 -21.6806C838.118 -20.028 836.439 -18.6642 834.342 -17.9387C827.59 -15.4062 820.777 -13.0483 813.965 -10.6905Z" fill="#EF476F"/><path d="M703.316 123.452C686.6 128.846 669.454 132.433 653.162 139.05C637.917 145.304 622.545 150.624 606.877 155.656C594.414 159.774 581.715 163.777 568.453 164.455C565.766 164.603 563.132 164.34 560.498 164.078C559.504 164.031 558.1 163.93 557.791 162.472C557.542 161.189 558.59 160.826 559.343 160.175C565.255 155.781 572.122 153.013 578.928 150.071C593.528 143.649 607.832 136.938 622.311 130.166C638.301 122.676 653.936 114.722 669.987 107.407C680.28 102.671 690.64 98.6939 701.114 94.482C712.986 89.7864 725.281 86.3135 737.818 83.5395C750.181 80.8259 762.61 78.8715 775.174 78.4354C792.178 77.8317 809.358 77.1676 825.905 82.5903C832.066 84.5659 837.427 88.1875 841.753 93.3408C846.852 99.5961 846.63 110.823 839.165 117.514C831.64 124.031 822.375 126.65 812.68 127.463C810.403 127.664 808.253 128.799 806.016 127.422C806.869 125.366 808.858 125.46 810.605 124.856C816.315 123.271 822.389 122.733 827.374 119.052C835.954 112.757 836.425 102.814 828.047 96.1283C821.027 90.5381 812.421 89.4089 803.996 88.8037C784.102 87.2775 764.302 88.8486 744.583 92.3479C728.365 95.2225 712.992 100.543 697.687 106.622C687.038 110.895 676.51 115.516 666.459 120.951C655.42 126.923 644.26 132.546 633.933 139.445C633.295 139.862 632.831 140.218 632.489 140.923C634.659 141.542 636.52 140.702 638.441 140.037C647.115 136.839 655.849 133.816 664.825 131.492C676.072 128.382 686.957 124.224 698.331 122.048C700.32 122.142 702.235 120.893 703.316 123.452Z" fill="#AE1D3E"/><path d="M426.297 135.215C426.996 134.973 427.984 134.435 428.635 135.188C429.522 136.055 428.891 137.056 428.199 137.882C423.119 143.552 416.555 147.193 409.991 150.834C409.003 151.372 407.774 151.21 407.001 150.109C406.047 148.483 407.028 147.361 408.305 146.528C412.477 143.323 417.005 140.582 421.594 138.016C423.16 136.887 424.786 135.933 426.297 135.215Z" fill="#EDC248"/><path d="M541.004 -1.89746C541.904 0.138303 540.862 1.0855 540.231 2.08652C535.689 8.74434 529.964 14.2465 523.111 18.1832C521.66 19.0767 520.088 19.6208 518.959 18.0554C517.656 16.5503 518.751 15.1932 519.907 14.0108C523.259 10.6988 527.264 8.13924 531.093 5.64016C534.339 3.14776 537.584 0.655392 541.004 -1.89746Z" fill="#ECC148"/><path d="M743.191 6.37071C729.572 11.6709 714.67 17.2196 700.185 23.4065C690.819 27.4304 682.172 32.966 672.987 37.514C659.678 44.2721 645.649 49.5185 630.64 50.8009C623.807 51.4052 620.723 47.5822 622.343 40.9578C623.68 35.2135 626.428 30.1546 630.298 26.0767C644.166 11.8879 658.86 -1.60886 676.759 -10.9332C683.558 -14.46 691.332 -14.6074 698.816 -14.4592C711.796 -14.2569 724.609 -13.4097 737.475 -12.9723C747.942 -12.6828 757.973 -14.7851 768.239 -16.7732C773.721 -17.8882 779.257 -19.413 785.002 -18.0757C786.292 -17.7397 788.334 -18.0554 788.415 -16.1272C788.549 -14.6088 787.454 -13.2517 786.063 -12.1835C782.119 -9.44927 778 -6.65462 773.398 -5.25742C763.851 -1.75759 754.613 3.20019 743.191 6.37071Z" fill="#DD214F"/><path d="M-825.473 101.504C-830.709 102.07 -835.338 104.148 -840.094 106.18C-843.903 107.977 -847.676 110.075 -851.766 111.052C-854.781 111.84 -857.796 112.627 -859.995 109.537C-861.867 107.139 -861.142 103.516 -858.588 100.406C-855.322 96.1134 -851.301 92.5229 -846.907 89.4974C-841.948 86.0995 -837.026 82.4011 -830.959 81.1265C-830.029 79.7348 -828.644 79.0813 -827.013 78.9472C-820.62 78.3651 -814.254 77.0546 -807.815 76.3451C-806.312 76.1653 -803.944 75.5771 -804.486 78.6904C-806.109 80.4088 -808.34 80.6148 -810.536 81.1214C-815.053 82.0888 -819.78 82.8373 -823.619 85.9182C-824.667 86.8362 -825.971 87.6629 -825.663 89.2113C-825.356 90.7597 -823.909 91.1353 -822.543 91.3377C-819.603 91.9614 -816.735 91.9839 -813.775 91.7517C-806.654 91.1435 -799.405 90.5809 -792.257 90.7011C-786.994 90.864 -781.869 91.4091 -776.763 92.8101C-774.806 93.3685 -772.794 93.3716 -770.863 93.2015C-770.134 93.1753 -769.278 93.1949 -769.086 92.2573C-768.812 91.4928 -769.311 90.882 -769.811 90.2711C-770.102 89.8791 -769.684 90.3169 -770.02 90.0523C-776.025 86.7468 -779.22 80.4227 -784.787 76.6991C-785.369 75.9151 -786.215 75.4676 -787.061 75.0202C-787.653 74.6641 -788.198 74.1807 -787.796 73.462C-787.568 72.8249 -786.839 72.7987 -786.111 72.7725C-785.082 72.7104 -784.19 73.0304 -783.471 73.4322C-781.269 74.51 -779.286 75.797 -777.568 77.4204C-766.966 87.5529 -754.382 93.3634 -740.008 95.7893C-732.543 97.0299 -724.896 97.761 -717.356 97.5904C-715.599 97.5021 -713.841 97.4137 -712.093 97.7533C-710.901 98.0374 -709.581 98.3672 -709.921 100.115C-712.501 102.497 -715.905 101.563 -718.911 101.922C-720.841 102.092 -722.899 102.217 -724.676 103.161C-725.715 103.651 -726.8 104.269 -726.747 105.726C-726.649 107.055 -725.548 107.594 -724.402 108.006C-720.661 109.204 -716.901 109.547 -712.968 109.808C-688.767 111.302 -666.603 104.443 -645.661 92.9745C-614.612 75.7852 -589.153 52.1314 -566.529 25.1589C-552.755 8.81725 -540.199 -8.53697 -529.499 -27.1324C-523.218 -37.8218 -518.038 -49.0502 -512.939 -60.4517C-507.531 -72.3171 -502.886 -84.4569 -497.733 -96.4137C-494.342 -104.258 -490.825 -112.056 -487.689 -119.991C-485.779 -124.914 -482.721 -129.426 -480.938 -134.395C-477.936 -138.351 -473.389 -140.602 -469.388 -143.337C-456.482 -151.649 -442.095 -157.272 -428.163 -163.634C-420.245 -167.264 -411.836 -169.855 -403.591 -172.793C-393.879 -176.211 -384.004 -179.282 -374.456 -183.047C-359.723 -188.833 -345.598 -196.133 -331.274 -202.785C-324.003 -206.216 -317.176 -210.813 -310.312 -215.109C-300.924 -221.232 -292.163 -228.011 -284.066 -235.748C-271.245 -247.83 -259.688 -260.796 -250.523 -275.916C-246.963 -281.829 -243.403 -287.742 -239.924 -293.829C-237.432 -297.968 -236.132 -302.391 -234.323 -306.632C-233.774 -308.16 -233.144 -309.516 -232.977 -311.182C-231.462 -313.802 -231.302 -317.053 -229.195 -319.317C-227.183 -319.314 -228.368 -318.014 -228.551 -317.504C-229.796 -313.636 -231.295 -309.859 -232.666 -306.037C-230.426 -312.28 -228.868 -318.624 -227.01 -325.005C-224.822 -332.705 -222.935 -340.369 -221.638 -348.389C-220.434 -356.154 -220.258 -363.857 -219.909 -371.642C-219.713 -374.592 -219.436 -377.368 -219.24 -380.318C-219.31 -388.541 -219.124 -396.672 -220.177 -404.959C-221.203 -412.519 -222.968 -419.624 -226.974 -426.095C-227.346 -426.66 -227.673 -427.352 -227.826 -428.127C-229.614 -432.363 -233.015 -435.31 -236.243 -438.338C-242.525 -444.475 -249.637 -449.904 -255.61 -456.506C-260.409 -461.967 -264.598 -467.929 -267.656 -474.635C-271.864 -485.35 -272.094 -495.931 -268.417 -506.979C-262.352 -525.081 -249.868 -537.427 -233.936 -546.955C-216.921 -557.1 -198.601 -562.462 -178.912 -564.025C-162.183 -565.357 -145.778 -569.392 -129.193 -571.926C-118.664 -573.612 -108.145 -574.871 -97.4924 -574.5C-96.336 -574.516 -95.2155 -574.833 -94.1048 -574.722C-80.4757 -573.426 -67.552 -569.364 -55.1769 -563.772C-51.8284 -562.283 -48.3426 -561.176 -45.1312 -559.304C-44.076 -558.638 -42.7562 -558.308 -42.5307 -556.933C-43.981 -555.296 -45.6275 -556.318 -46.9833 -556.949C-52.6709 -559.134 -58.6426 -560.126 -64.6242 -560.691C-65.8623 -560.847 -67.646 -561.488 -68.1947 -559.959C-68.4788 -558.766 -66.695 -558.126 -65.7672 -557.506C-63.4477 -555.954 -60.7721 -554.994 -58.0966 -554.034C-56.8225 -553.576 -55.2021 -553.282 -55.1595 -551.398C-56.8548 -550.28 -58.3282 -551.384 -59.9029 -551.806C-61.2226 -552.135 -62.4053 -552.847 -64.0714 -553.014C-59.3701 -548.882 -54.8779 -544.969 -48.449 -545.25C-44.8065 -545.381 -41.5134 -543.336 -37.7338 -543.85C-34.0195 -543.38 -31.0269 -541.299 -27.6783 -539.81C-18.6062 -535.835 -9.93572 -531.141 -1.08238 -526.957C0.783017 -526.144 2.82153 -525.412 4.86982 -525.109C9.77659 -524.355 13.9518 -521.562 18.6299 -520.171C30.3253 -516.693 41.472 -511.686 52.9027 -507.871C58.0448 -506.17 62.5205 -503.413 66.8591 -500.274C67.996 -499.435 68.9598 -498.513 69.7504 -497.511C73.4848 -492.287 71.4273 -486.554 65.2238 -484.897C60.9608 -483.838 56.4722 -484.155 52.1568 -484.553C46.4301 -485.026 40.8961 -486.437 35.362 -487.848C31.6574 -488.746 28.4917 -490.745 25.2346 -492.489C24.5976 -492.717 24.1434 -493.456 23.379 -493.73C14.4311 -495.647 8.71367 -502.157 2.46707 -507.994C-8.64417 -518.309 -19.8011 -528.498 -33.6496 -535.193C-52.2383 -544.309 -71.8001 -548.309 -92.3806 -547.066C-107.215 -546.205 -121.68 -542.767 -135.972 -539.411C-147.941 -536.516 -159.91 -533.62 -171.634 -530.205C-181.291 -527.343 -191.074 -524.526 -200.169 -520.023C-213.591 -513.479 -222.985 -503.331 -228.234 -489.107C-232.431 -477.814 -232.903 -466.478 -230.517 -454.692C-228.086 -443.033 -223.887 -431.89 -220.162 -420.63C-212.212 -397.499 -208.897 -373.874 -212.021 -349.539C-213.836 -335.665 -216.716 -322.029 -221.854 -308.916C-230.09 -287.567 -240.32 -267.077 -255.489 -249.654C-266.089 -237.35 -278.57 -227.016 -291.506 -217.421C-307.577 -205.499 -324.521 -194.753 -342.164 -185.264C-353.738 -179.063 -365.556 -173.381 -377.538 -168.045C-394.103 -160.759 -411.312 -155.286 -427.949 -148.6C-441.388 -143.212 -452.001 -134.077 -458.177 -120.474C-462.91 -110.092 -468.106 -100.02 -472.666 -89.7191C-473.835 -87.2624 -475.132 -84.8514 -476.638 -82.6593C-484.624 -70.4245 -491.555 -57.5234 -499.75 -45.5075C-521.425 -13.1612 -543.437 18.9205 -570.496 47.0335C-575.978 52.6888 -581.286 58.2624 -587.185 63.48C-587.841 64.1073 -588.625 64.6888 -589.2 65.4892C-599.565 78.7402 -613.219 87.9341 -627.455 96.3441C-635.484 101.085 -644.131 104.741 -652.742 108.698C-657.544 110.858 -662.009 113.282 -667.056 114.923C-679.692 118.873 -692.696 120.247 -705.783 121.447C-714.535 122.189 -723.247 121.22 -731.96 120.25C-734.864 119.927 -737.046 117.993 -739.813 117.288C-741.097 117.259 -742.162 117.02 -743.217 116.354C-744.099 115.606 -744.808 114.776 -745.955 114.365C-755.011 111.546 -762.76 105.889 -771.185 101.715C-777.409 98.6184 -784.109 97.6521 -790.829 97.5416C-799.388 97.3464 -807.921 97.8797 -816.346 99.3145C-817.721 99.5401 -819.269 99.8473 -820.481 100.419C-822.059 102.01 -823.816 102.099 -825.473 101.504Z" fill="#DD214F"/><path d="M-739.212 117.216C-728.193 122.178 -716.583 121.886 -705.09 121.12C-692.141 120.302 -679.172 118.629 -666.791 114.587C-656.652 111.178 -647.201 106.085 -637.46 101.383C-622.306 94.0214 -608.061 85.1835 -596.35 72.9908C-577.189 53.261 -557.355 34.0604 -540.795 11.9592C-530.594 -1.63803 -520.73 -15.4999 -511.202 -29.6262C-503.18 -41.5605 -495.076 -53.3216 -487.645 -65.6119C-483.108 -73.0442 -478.062 -80.2936 -474.289 -88.0003C-471.147 -94.3512 -467.959 -100.829 -465.026 -107.399C-460.248 -117.909 -456.061 -128.774 -447.189 -136.665C-441.244 -142.01 -434.682 -146.27 -427.211 -149.054C-415.029 -153.743 -402.521 -157.739 -390.376 -162.729C-380.864 -166.794 -371.397 -170.731 -362.048 -175.142C-343.777 -183.974 -326.125 -193.89 -309.253 -205.237C-293.557 -215.712 -278.57 -227.016 -264.828 -240.061C-252.791 -251.562 -243.619 -265.097 -235.712 -279.517C-231.913 -286.495 -228.706 -293.829 -225.753 -301.255C-223.888 -306.051 -221.468 -310.791 -220.113 -315.77C-214.528 -335.338 -210.738 -355.119 -212.281 -375.663C-213.112 -386.173 -214.844 -396.574 -217.397 -406.694C-219.913 -416.514 -223.769 -425.807 -226.932 -435.428C-230.647 -447.116 -234.444 -458.977 -233.259 -471.495C-231.768 -488.074 -225.363 -502.315 -211.889 -513.012C-204.696 -518.628 -196.569 -522.039 -188.023 -525.013C-172.918 -530.234 -157.414 -534.162 -141.783 -538.045C-129.121 -541.267 -116.378 -544.316 -103.363 -546.117C-89.019 -548.016 -74.851 -547.822 -60.6239 -544.586C-43.5841 -540.772 -28.161 -533.655 -14.4004 -523.108C-7.07907 -517.46 -0.551457 -510.803 6.28646 -504.61C9.85079 -501.317 13.7712 -498.616 17.4727 -495.706C18.2731 -495.131 19.0833 -494.984 20.0209 -494.791C21.7686 -494.452 23.5621 -494.239 24.7252 -492.671C25.4506 -490.685 27.4532 -490.254 28.7992 -489.196C30.7365 -487.782 32.455 -486.158 34.3923 -484.744C40.1226 -480.674 40.6985 -470.256 36.2823 -464.363C29.7496 -455.777 21.3021 -451.474 10.4858 -452.192C9.50249 -452.257 8.42774 -452.067 7.44445 -452.133C3.73984 -453.031 1.31238 -455.484 -0.63162 -458.482C-4.82992 -464.016 -6.77752 -470.611 -8.72512 -477.207C-12.2674 -488.977 -16.329 -500.501 -24.3727 -510.147C-31.4983 -518.745 -40.3943 -524.814 -50.3486 -529.537C-74.6609 -541.138 -100.201 -542.106 -126.249 -537.648C-146.624 -534.173 -166.835 -530.352 -186.105 -522.742C-200.71 -516.91 -213.917 -502.953 -213.428 -483.075C-212.727 -459.381 -208.328 -436.373 -203.974 -413.238C-200.578 -395.049 -198.639 -376.808 -199.278 -358.197C-200.282 -332.958 -206.264 -309.074 -216.379 -286.098C-221.752 -273.932 -227.079 -261.893 -233.762 -250.485C-236.793 -245.245 -240.033 -240.224 -243.401 -235.248C-244.596 -233.52 -245.537 -231.7 -246.35 -229.835C-248.307 -224.784 -251.191 -220.354 -253.993 -215.751C-256.658 -211.53 -259.069 -207.218 -261.479 -202.906C-262.283 -201.468 -263.005 -199.858 -264.69 -199.168C-266.366 -198.907 -266.209 -200.145 -266.272 -201.174C-266.324 -202.631 -266.249 -204.042 -266.301 -205.499C-266.929 -211.764 -271.268 -214.903 -277.461 -213.675C-285.158 -212.266 -291.547 -208.087 -297.728 -203.69C-303.78 -199.246 -309.833 -194.803 -316.177 -190.751C-327.215 -183.639 -339.351 -179.077 -351.486 -174.516C-357.445 -172.339 -363.367 -169.863 -368.999 -166.994C-372.206 -165.269 -375.333 -163.37 -374.875 -159.036C-374.417 -154.701 -371.023 -153.339 -367.236 -152.267C-365.025 -151.618 -362.31 -152.369 -360.383 -150.527C-360.422 -148.815 -361.924 -148.635 -362.999 -148.446C-371.27 -146.237 -379.378 -143.681 -387.686 -141.773C-398.835 -139.158 -408.631 -133.901 -416.948 -125.956C-419.182 -123.737 -421.08 -121.254 -422.004 -118.278C-423.34 -114.155 -422.186 -112.16 -417.835 -111.461C-417.152 -111.36 -416.296 -111.34 -415.797 -110.729C-413.631 -109.952 -411.373 -109.429 -409.344 -108.27C-402.876 -104.654 -403.395 -98.8001 -407.164 -93.1058C-408.405 -91.2502 -410.238 -89.7506 -412.361 -88.6429C-414.569 -85.6961 -417.686 -84.2258 -421.057 -82.8469C-428.92 -79.7722 -436.247 -75.786 -444.073 -72.4107C-445.24 -71.9664 -445.86 -71.0385 -446.481 -70.1107C-450.182 -67.412 -454.5 -65.7978 -458.329 -63.1449C-469.203 -55.6859 -478.277 -46.4303 -486.852 -36.5638C-505.451 -15.1942 -522.449 7.32522 -541.257 28.476C-562.182 52.3188 -584.861 74.2377 -611.003 92.1812C-629.27 104.61 -648.599 114.787 -669.806 120.983C-688.299 126.427 -707.158 127.282 -726.304 125.732C-738.486 124.812 -750.521 123.081 -762.536 120.495C-767.861 119.303 -773.085 117.429 -778.181 115.6C-780.383 114.522 -782.494 113.189 -784.34 111.52C-784.046 109.9 -782.817 110.484 -781.788 110.422C-779.257 110.18 -776.526 110.585 -774.095 111.026C-770.136 112.015 -766.167 112.577 -762.243 113.266C-758.065 114.046 -754.115 115.463 -749.8 115.862C-747.278 116.048 -744.282 116.116 -741.871 117.413C-741.071 117.987 -740.042 117.925 -739.212 117.216Z" fill="#EF436B"/></g></svg>